<svg width="18" height="19" viewBox="0 0 18 19" fill="none" xmlns="http://www.w3.org/2000/svg">
<g clip-path="url(#clip0_1_5331)">
<path d="M9 13.6416C9.15533 13.6416 9.28125 13.5157 9.28125 13.3604C9.28125 13.205 9.15533 13.0791 9 13.0791C8.84467 13.0791 8.71875 13.205 8.71875 13.3604C8.71875 13.5157 8.84467 13.6416 9 13.6416Z" fill="black"/>
<path d="M8.99063 11.6834V5.01855" stroke="black" stroke-linecap="round" stroke-linejoin="round"/>
<path d="M9 17.3926C13.4528 17.3926 17.0625 13.7829 17.0625 9.33008C17.0625 4.87728 13.4528 1.26758 9 1.26758C4.5472 1.26758 0.9375 4.87728 0.9375 9.33008C0.9375 13.7829 4.5472 17.3926 9 17.3926Z" stroke="black" stroke-linecap="round" stroke-linejoin="round"/>
</g>
<defs>
<clipPath id="clip0_1_5331">
<rect width="18" height="18" fill="white" transform="translate(0 0.330078)"/>
</clipPath>
</defs>
</svg>
