<svg width="16" height="16" viewBox="0 0 16 16" fill="none" xmlns="http://www.w3.org/2000/svg">
<g clip-path="url(#clip0_152_4339)">
<path d="M10.0049 15.6526H6.11495C5.91745 15.6526 5.75745 15.4926 5.75745 15.2951V5.7701C5.75745 5.5726 5.91745 5.4126 6.11495 5.4126H10.0049C10.2024 5.4126 10.3624 5.5726 10.3624 5.7701V15.2951C10.3624 15.4926 10.2024 15.6526 10.0049 15.6526ZM6.47495 14.9376H9.64745V6.1276H6.47495V14.9376Z" fill="#060711"/>
<path d="M15.6425 10.0151H6.11751C5.92001 10.0151 5.76001 9.8551 5.76001 9.6576V5.7701C5.76001 5.5726 5.92001 5.4126 6.11751 5.4126H15.6425C15.84 5.4126 16 5.5726 16 5.7701V9.6601C16 9.8551 15.84 10.0151 15.6425 10.0151ZM6.47501 9.3001H15.285V6.1276H6.47501V9.3001ZM7.87501 14.1851H6.11751C5.92001 14.1851 5.76001 14.0251 5.76001 13.8276C5.76001 13.6301 5.92001 13.4701 6.11751 13.4701H7.87501C8.07251 13.4701 8.23251 13.6301 8.23251 13.8276C8.23251 14.0251 8.07251 14.1851 7.87501 14.1851ZM7.87501 12.0951H6.11751C5.92001 12.0951 5.76001 11.9351 5.76001 11.7376C5.76001 11.5401 5.92001 11.3801 6.11751 11.3801H7.87501C8.07251 11.3801 8.23251 11.5401 8.23251 11.7376C8.23251 11.9351 8.07251 12.0951 7.87501 12.0951Z" fill="#060711"/>
<path d="M11.9751 7.8851C11.7776 7.8851 11.6176 7.7251 11.6176 7.5276V5.7701C11.6176 5.5726 11.7776 5.4126 11.9751 5.4126C12.1726 5.4126 12.3326 5.5726 12.3326 5.7701V7.5276C12.3326 7.7251 12.1726 7.8851 11.9751 7.8851ZM14.0651 7.8851C13.8676 7.8851 13.7076 7.7251 13.7076 7.5276V5.7701C13.7076 5.5726 13.8676 5.4126 14.0651 5.4126C14.2626 5.4126 14.4226 5.5726 14.4226 5.7701V7.5276C14.4226 7.7251 14.2626 7.8851 14.0651 7.8851Z" fill="#060711"/>
<path d="M4.13753 15.4924C3.94003 15.4924 3.78003 15.3324 3.78003 15.1349V0.704912C3.78003 0.507412 3.94003 0.347412 4.13753 0.347412C4.33503 0.347412 4.49503 0.507412 4.49503 0.704912V15.1349C4.49503 15.3324 4.33503 15.4924 4.13753 15.4924Z" fill="#060711"/>
<path d="M15.6425 4.52994H0.3575C0.16 4.52994 0 4.36994 0 4.17244C0 3.97494 0.16 3.81494 0.3575 3.81494H15.64C15.8375 3.81494 15.9975 3.97494 15.9975 4.17244C15.9975 4.36994 15.84 4.52994 15.6425 4.52994Z" fill="#060711"/>
</g>
<defs>
<clipPath id="clip0_152_4339">
<rect width="16" height="16" fill="white"/>
</clipPath>
</defs>
</svg>
