<svg width="18" height="15" viewBox="0 0 18 15" fill="none" xmlns="http://www.w3.org/2000/svg">
<path d="M16.5 2.8335V2.00016H14.8334V2.8335H13.7675L12.9342 0.333496H5.06585L4.23252 2.8335H0.666687V14.5002H17.3334V2.8335H16.5ZM15.6667 12.8335H2.33335V4.50016H5.43419L6.26752 2.00016H11.7325L12.5659 4.50016H15.6667V12.8335Z" fill="white"/>
<path d="M9 4.5C8.25832 4.5 7.5333 4.71993 6.91661 5.13199C6.29993 5.54404 5.81928 6.12971 5.53545 6.81494C5.25162 7.50016 5.17736 8.25416 5.32206 8.98159C5.46675 9.70902 5.8239 10.3772 6.34835 10.9017C6.8728 11.4261 7.54098 11.7833 8.26841 11.9279C8.99584 12.0726 9.74984 11.9984 10.4351 11.7145C11.1203 11.4307 11.706 10.9501 12.118 10.3334C12.5301 9.7167 12.75 8.99168 12.75 8.25C12.7489 7.25578 12.3535 6.30259 11.6504 5.59957C10.9474 4.89654 9.99422 4.5011 9 4.5V4.5ZM9 10.3333C8.58796 10.3333 8.18517 10.2111 7.84256 9.98223C7.49996 9.75331 7.23293 9.42794 7.07525 9.04726C6.91757 8.66658 6.87631 8.24769 6.9567 7.84356C7.03708 7.43943 7.2355 7.06822 7.52686 6.77686C7.81822 6.4855 8.18944 6.28708 8.59356 6.2067C8.99769 6.12631 9.41658 6.16757 9.79726 6.32525C10.1779 6.48293 10.5033 6.74996 10.7322 7.09256C10.9611 7.43516 11.0833 7.83796 11.0833 8.25C11.0833 8.80253 10.8638 9.33244 10.4731 9.72314C10.0824 10.1138 9.55254 10.3333 9 10.3333V10.3333Z" fill="white"/>
</svg>
