<svg width="15" height="14" viewBox="0 0 15 14" fill="none" xmlns="http://www.w3.org/2000/svg">
<path d="M8.97859 1.07211C8.99729 1.00012 9.04374 0.938478 9.10779 0.900659C9.17183 0.862841 9.24824 0.851928 9.3203 0.870309C10.316 1.12965 11.2245 1.64999 11.952 2.37762C12.6795 3.10526 13.1997 4.01384 13.4589 5.00961C13.4773 5.08158 13.4665 5.15791 13.4288 5.22193C13.3911 5.28595 13.3297 5.33247 13.2578 5.35132C13.2349 5.35785 13.2113 5.36116 13.1875 5.36117C13.1253 5.36097 13.0649 5.34015 13.0158 5.30199C12.9667 5.26382 12.9316 5.21045 12.9161 5.15023C12.6813 4.25168 12.2114 3.4319 11.5547 2.7752C10.898 2.1185 10.0782 1.6486 9.17968 1.41382C9.10783 1.39497 9.04635 1.34845 9.00867 1.28443C8.971 1.22041 8.96018 1.14408 8.97859 1.07211ZM8.61718 3.66382C9.67187 3.94718 10.3827 4.65804 10.6661 5.71273C10.6816 5.77295 10.7167 5.82632 10.7658 5.86449C10.8149 5.90265 10.8753 5.92347 10.9375 5.92367C10.9613 5.92366 10.9849 5.92035 11.0078 5.91382C11.0797 5.89454 11.1411 5.84751 11.1784 5.78305C11.2157 5.71859 11.2259 5.64197 11.2068 5.57C10.8693 4.30437 10.022 3.46062 8.7578 3.12031C8.68754 3.10672 8.61474 3.12043 8.55423 3.15865C8.49372 3.19686 8.45005 3.25671 8.43213 3.326C8.4142 3.39528 8.42336 3.46879 8.45774 3.53156C8.49213 3.59433 8.54914 3.64163 8.61718 3.66382ZM14.027 10.6051C13.9103 11.4903 13.4752 12.3027 12.8031 12.8904C12.131 13.4782 11.2678 13.801 10.375 13.7987C4.94687 13.7987 0.531243 9.38304 0.531243 3.95492C0.529393 3.06243 0.852492 2.19978 1.44019 1.52811C2.02789 0.856431 2.84 0.421659 3.72484 0.304996C3.90611 0.282958 4.08964 0.320324 4.24787 0.411482C4.40609 0.50264 4.53048 0.642669 4.60234 0.810543L6.08593 4.12507C6.14139 4.2536 6.16399 4.3939 6.15172 4.53334C6.13945 4.67277 6.09267 4.80697 6.01562 4.92382C6.00929 4.93297 6.00296 4.94211 5.99593 4.95054L4.5053 6.72312C4.48191 6.76195 4.46852 6.80598 4.46631 6.85125C4.4641 6.89653 4.47315 6.94165 4.49265 6.98257C5.0439 8.11109 6.22585 9.2839 7.36773 9.83515C7.40896 9.85428 7.45428 9.86294 7.49966 9.86036C7.54503 9.85779 7.58908 9.84405 7.62788 9.82039L9.37656 8.33539L9.40327 8.315C9.5203 8.2377 9.65474 8.19079 9.79445 8.17852C9.93416 8.16624 10.0747 8.18898 10.2034 8.24468L13.5236 9.7325C13.6898 9.8048 13.8283 9.92871 13.9186 10.0859C14.0089 10.243 14.0462 10.4251 14.0249 10.6051H14.027ZM13.2993 10.2451L9.97773 8.75726C9.93737 8.74032 9.89357 8.73321 9.84993 8.73651C9.80629 8.73981 9.76406 8.75343 9.72671 8.77625L7.98437 10.2612L7.95835 10.2809C7.83721 10.3618 7.69719 10.41 7.55192 10.4207C7.40664 10.4314 7.26107 10.4043 7.12937 10.3421C5.86374 9.73109 4.60445 8.48023 3.99343 7.22937C3.93059 7.09868 3.90249 6.95399 3.91185 6.80928C3.92121 6.66457 3.96771 6.52471 4.04687 6.4032C4.0532 6.39336 4.06023 6.38492 4.06726 6.37578L5.55718 4.6039C5.57951 4.56593 5.59261 4.52323 5.59542 4.47927C5.59823 4.4353 5.59067 4.39129 5.57335 4.35078L4.08695 1.03625C4.066 0.984863 4.03032 0.940823 3.98441 0.90967C3.93849 0.878516 3.88438 0.861641 3.8289 0.861168C3.81766 0.86047 3.80639 0.86047 3.79515 0.861168C3.0458 0.960458 2.35826 1.32927 1.86108 1.89866C1.3639 2.46805 1.09112 3.19902 1.09374 3.95492C1.09374 9.07226 5.25765 13.2362 10.375 13.2362C11.1309 13.2388 11.8619 12.966 12.4312 12.4688C13.0006 11.9717 13.3695 11.2841 13.4687 10.5348C13.4752 10.4744 13.462 10.4136 13.4311 10.3614C13.4002 10.3092 13.3532 10.2684 13.2972 10.2451H13.2993Z" fill="black"/>
</svg>
