<svg width="16" height="18" viewBox="0 0 16 18" fill="none" xmlns="http://www.w3.org/2000/svg">
<path d="M6.83 0.920039C6.67484 0.920039 6.52605 0.981673 6.41634 1.09138C6.30663 1.20109 6.245 1.34989 6.245 1.50504C6.245 1.66019 6.30663 1.80899 6.41634 1.9187C6.52605 2.02841 6.67484 2.09004 6.83 2.09004H9.16C9.31694 2.09004 9.46752 2.02804 9.57897 1.91754C9.69041 1.80703 9.75368 1.65697 9.755 1.50004C9.755 1.34489 9.69336 1.19609 9.58365 1.08638C9.47394 0.976673 9.32515 0.915039 9.17 0.915039L6.83 0.920039ZM9.91 14.45C9.98724 14.4507 10.0638 14.4361 10.1354 14.407C10.207 14.3778 10.272 14.3349 10.3269 14.2805C10.3817 14.2261 10.4253 14.1614 10.455 14.0901C10.4847 14.0188 10.5 13.9423 10.5 13.865V6.24504C10.4974 6.09069 10.435 5.94338 10.3258 5.83423C10.2167 5.72507 10.0693 5.66261 9.915 5.66004C9.83817 5.66004 9.7621 5.67517 9.69113 5.70457C9.62015 5.73397 9.55566 5.77706 9.50134 5.83138C9.44702 5.8857 9.40392 5.95019 9.37453 6.02117C9.34513 6.09214 9.33 6.16822 9.33 6.24504V13.865C9.32999 14.0193 9.39094 14.1674 9.49957 14.2769C9.6082 14.3865 9.75571 14.4487 9.91 14.45Z" fill="black"/>
<path d="M15.205 3.26516H0.795022C0.63987 3.26516 0.491073 3.32679 0.381364 3.4365C0.271656 3.54621 0.210022 3.69501 0.210022 3.85016C0.210022 4.00531 0.271656 4.15411 0.381364 4.26382C0.491073 4.37352 0.63987 4.43516 0.795022 4.43516H2.00002V15.6152C2.00002 16.0037 2.15437 16.3763 2.42911 16.6511C2.70385 16.9258 3.07648 17.0802 3.46502 17.0802H12.54C12.7324 17.0808 12.9229 17.0433 13.1007 16.9699C13.2784 16.8964 13.4399 16.7885 13.5757 16.6522C13.7114 16.516 13.8188 16.3542 13.8917 16.1762C13.9645 15.9982 14.0013 15.8075 14 15.6152V4.43516H15.2C15.3557 4.43391 15.5048 4.37218 15.6159 4.26302C15.7269 4.15386 15.7911 4.00581 15.795 3.85016C15.795 3.77291 15.7797 3.69643 15.75 3.62513C15.7203 3.55382 15.6768 3.48911 15.6219 3.43472C15.5671 3.38033 15.502 3.33735 15.4304 3.30825C15.3589 3.27914 15.2823 3.2645 15.205 3.26516ZM12.83 15.6152C12.83 15.6543 12.8222 15.6931 12.8071 15.7292C12.792 15.7653 12.7698 15.7981 12.7419 15.8255C12.7139 15.853 12.6808 15.8746 12.6445 15.8892C12.6081 15.9037 12.5692 15.9108 12.53 15.9102H3.45002C3.41086 15.9108 3.37196 15.9037 3.33559 15.8892C3.29922 15.8746 3.26611 15.853 3.23819 15.8255C3.21026 15.7981 3.18808 15.7653 3.17295 15.7292C3.15781 15.6931 3.15002 15.6543 3.15002 15.6152V4.43516H12.83V15.6152Z" fill="black"/>
<path d="M6.45005 14.45C6.60393 14.4474 6.75069 14.3848 6.85905 14.2755C6.9674 14.1662 7.02877 14.0189 7.03005 13.865V6.24498C7.03756 6.16395 7.02809 6.08225 7.00223 6.00508C6.97638 5.92792 6.93471 5.85701 6.87989 5.79686C6.82506 5.73672 6.7583 5.68868 6.68385 5.65581C6.60941 5.62294 6.52893 5.60596 6.44755 5.60596C6.36617 5.60596 6.28569 5.62294 6.21124 5.65581C6.1368 5.68868 6.07003 5.73672 6.01521 5.79686C5.96039 5.85701 5.91872 5.92792 5.89286 6.00508C5.86701 6.08225 5.85753 6.16395 5.86505 6.24498V13.865C5.86505 14.0201 5.92668 14.1689 6.03639 14.2786C6.1461 14.3883 6.2949 14.45 6.45005 14.45Z" fill="black"/>
</svg>
