<svg width="24" height="24" viewBox="0 0 24 24" fill="none" xmlns="http://www.w3.org/2000/svg">
<path d="M21 19.6875H3C1.96613 19.6875 1.125 18.8464 1.125 17.8125V5.625C1.125 4.59113 1.96613 3.75 3 3.75H21C22.0339 3.75 22.875 4.59113 22.875 5.625V17.8125C22.875 18.8464 22.0339 19.6875 21 19.6875ZM3 4.5C2.37956 4.5 1.875 5.00456 1.875 5.625V17.8125C1.875 18.4329 2.37956 18.9375 3 18.9375H21C21.6204 18.9375 22.125 18.4329 22.125 17.8125V5.625C22.125 5.00456 21.6204 4.5 21 4.5H3Z" fill="#505070"/>
<path d="M12 12.1948C11.7678 12.1946 11.5414 12.1225 11.352 11.9883L1.50054 6.3249C1.41435 6.27529 1.35137 6.19349 1.32546 6.09747C1.29955 6.00146 1.31282 5.89908 1.36236 5.81284C1.41207 5.72676 1.49387 5.66388 1.58984 5.63798C1.68582 5.61208 1.78815 5.62527 1.87442 5.67465L11.7774 11.3707C11.8418 11.4183 11.9198 11.444 11.9999 11.444C12.08 11.444 12.1579 11.4183 12.2224 11.3707L12.2576 11.3477L22.1255 5.67465C22.2116 5.6284 22.3122 5.61751 22.4061 5.64429C22.5 5.67107 22.5798 5.73342 22.6285 5.81808C22.6772 5.90274 22.6909 6.00305 22.6668 6.09769C22.6427 6.19232 22.5827 6.27384 22.4994 6.3249L12.648 11.9883C12.4585 12.1225 12.2321 12.1946 12 12.1948Z" fill="#505070"/>
</svg>
