<svg width="27" height="26" viewBox="0 0 27 26" fill="none" xmlns="http://www.w3.org/2000/svg">
<g clip-path="url(#clip0_1_808)">
<g filter="url(#filter0_d_1_808)">
<path d="M26.5 13C26.5 5.82034 20.6797 0 13.5 0C6.32034 0 0.5 5.82034 0.5 13C0.5 19.4886 5.25394 24.8669 11.4688 25.8421V16.7578H8.16797V13H11.4688V10.1359C11.4688 6.87781 13.4096 5.07812 16.3791 5.07812C17.8014 5.07812 19.2891 5.33203 19.2891 5.33203V8.53125H17.6498C16.0349 8.53125 15.5312 9.53337 15.5312 10.5615V13H19.1367L18.5604 16.7578H15.5312V25.8421C21.7461 24.8669 26.5 19.4887 26.5 13Z" fill="#1877F2"/>
</g>
<path d="M18.5604 16.7578L19.1367 13H15.5312V10.5615C15.5312 9.53327 16.0349 8.53125 17.6498 8.53125H19.2891V5.33203C19.2891 5.33203 17.8014 5.07812 16.379 5.07812C13.4096 5.07812 11.4688 6.87781 11.4688 10.1359V13H8.16797V16.7578H11.4688V25.8421C12.1407 25.9474 12.8198 26.0002 13.5 26C14.1802 26.0002 14.8593 25.9474 15.5312 25.8421V16.7578H18.5604Z" fill="white"/>
</g>
<defs>
<filter id="filter0_d_1_808" x="-3.5" y="0" width="34" height="33.8421" filterUnits="userSpaceOnUse" color-interpolation-filters="sRGB">
<feFlood flood-opacity="0" result="BackgroundImageFix"/>
<feColorMatrix in="SourceAlpha" type="matrix" values="0 0 0 0 0 0 0 0 0 0 0 0 0 0 0 0 0 0 127 0" result="hardAlpha"/>
<feOffset dy="4"/>
<feGaussianBlur stdDeviation="2"/>
<feComposite in2="hardAlpha" operator="out"/>
<feColorMatrix type="matrix" values="0 0 0 0 0 0 0 0 0 0 0 0 0 0 0 0 0 0 0.25 0"/>
<feBlend mode="normal" in2="BackgroundImageFix" result="effect1_dropShadow_1_808"/>
<feBlend mode="normal" in="SourceGraphic" in2="effect1_dropShadow_1_808" result="shape"/>
</filter>
<clipPath id="clip0_1_808">
<rect x="0.5" width="26" height="26" rx="13" fill="white"/>
</clipPath>
</defs>
</svg>
