<svg width="18" height="17" viewBox="0 0 18 17" fill="none" xmlns="http://www.w3.org/2000/svg">
<path d="M9.00115 17C8.90863 17.0006 8.81692 16.9813 8.73128 16.9433C8.64563 16.9054 8.56773 16.8494 8.50205 16.7787L2.04187 9.76662C1.30548 8.96632 0.804097 7.9471 0.601053 6.83768C0.398008 5.72827 0.502406 4.57843 0.901063 3.53338C1.29972 2.48833 1.97475 1.59495 2.84091 0.966076C3.70706 0.337201 4.72548 0.00103696 5.76754 4.20866e-05C6.93857 -0.00485062 8.07723 0.416981 9.00115 1.19797C10.0165 0.346761 11.2824 -0.0746035 12.5628 0.0124361C13.8433 0.0994756 15.0508 0.688979 15.9604 1.67104C16.9464 2.74632 17.5 4.2017 17.5 5.71883C17.5 7.23596 16.9464 8.69134 15.9604 9.76662L9.50025 16.7787C9.43456 16.8494 9.35666 16.9054 9.27102 16.9433C9.18537 16.9813 9.09366 17.0006 9.00115 17ZM5.76754 1.52607C5.25953 1.52421 4.75623 1.63184 4.28682 1.84272C3.81742 2.05359 3.39126 2.36352 3.03304 2.75452C2.31101 3.54356 1.90579 4.61053 1.90579 5.72264C1.90579 6.83476 2.31101 7.90173 3.03304 8.69077L9.00115 15.1611L14.9693 8.69077C15.6913 7.90173 16.0965 6.83476 16.0965 5.72264C16.0965 4.61053 15.6913 3.54356 14.9693 2.75452C14.6102 2.36462 14.1839 2.05533 13.7147 1.84431C13.2455 1.63329 12.7426 1.52468 12.2347 1.52468C11.7269 1.52468 11.224 1.63329 10.7548 1.84431C10.2856 2.05533 9.85929 2.36462 9.50025 2.75452C9.4349 2.82604 9.35715 2.8828 9.27149 2.92154C9.18583 2.96028 9.09395 2.98022 9.00115 2.98022C8.90835 2.98022 8.81647 2.96028 8.73081 2.92154C8.64514 2.8828 8.5674 2.82604 8.50205 2.75452C8.14383 2.36352 7.71767 2.05359 7.24826 1.84272C6.77886 1.63184 6.27556 1.52421 5.76754 1.52607Z" fill="black"/>
</svg>
