<svg width="27" height="26" viewBox="0 0 27 26" fill="none" xmlns="http://www.w3.org/2000/svg">
<path d="M24.1226 10.8783H23.25V10.8333H13.5V15.1667H19.6225C18.7293 17.6892 16.3291 19.5 13.5 19.5C9.91038 19.5 7 16.5896 7 13C7 9.41036 9.91038 6.49999 13.5 6.49999C15.157 6.49999 16.6644 7.12507 17.8122 8.14611L20.8764 5.08191C18.9416 3.2787 16.3535 2.16666 13.5 2.16666C7.5173 2.16666 2.66667 7.01728 2.66667 13C2.66667 18.9827 7.5173 23.8333 13.5 23.8333C19.4827 23.8333 24.3333 18.9827 24.3333 13C24.3333 12.2736 24.2586 11.5646 24.1226 10.8783Z" fill="#FFC107"/>
<path d="M3.91576 7.95761L7.47505 10.5679C8.43813 8.18349 10.7705 6.49999 13.5 6.49999C15.157 6.49999 16.6644 7.12507 17.8122 8.14611L20.8764 5.08191C18.9416 3.2787 16.3535 2.16666 13.5 2.16666C9.33892 2.16666 5.73034 4.51586 3.91576 7.95761Z" fill="#FF3D00"/>
<path d="M13.5 23.8333C16.2982 23.8333 18.8408 22.7625 20.7632 21.021L17.4103 18.1838C16.2861 19.0387 14.9124 19.5011 13.5 19.5C10.6822 19.5 8.2897 17.7033 7.38837 15.1959L3.85562 17.9178C5.64854 21.4262 9.28962 23.8333 13.5 23.8333Z" fill="#4CAF50"/>
<path d="M24.1226 10.8783H23.25V10.8333H13.5V15.1667H19.6225C19.1952 16.3672 18.4256 17.4163 17.4087 18.1843L17.4103 18.1832L20.7632 21.0205C20.526 21.2361 24.3333 18.4167 24.3333 13C24.3333 12.2736 24.2586 11.5646 24.1226 10.8783Z" fill="#1976D2"/>
</svg>
