<svg width="24" height="24" viewBox="0 0 24 24" fill="none" xmlns="http://www.w3.org/2000/svg">
<g clip-path="url(#clip0_1_5245)">
<path fill-rule="evenodd" clip-rule="evenodd" d="M21.625 19.5416H2.3738C1.84025 19.5416 1.40619 19.1076 1.40619 18.574V7.17365C1.40619 6.64014 1.84025 6.2061 2.3738 6.2061L10.9891 6.20605C11.1417 6.20605 11.2654 6.32982 11.2654 6.48242C11.2654 6.63502 11.1417 6.75876 10.9891 6.75876L2.3738 6.75871C2.14497 6.75871 1.95882 6.94488 1.95882 7.17367V18.574C1.95882 18.8028 2.14497 18.989 2.3738 18.989L21.625 18.989C21.8539 18.989 22.04 18.8029 22.04 18.5741L22.04 7.17366C22.04 6.94487 21.8539 6.75877 21.625 6.75877L12.8343 6.75873C12.6817 6.75873 12.558 6.63504 12.558 6.48243C12.558 6.32983 12.6817 6.20611 12.8343 6.20611L21.625 6.20607C22.1586 6.20607 22.5927 6.64017 22.5927 7.17369L22.5927 18.5741C22.5927 19.1076 22.1586 19.5416 21.625 19.5416Z" fill="black"/>
<path fill-rule="evenodd" clip-rule="evenodd" d="M4.40054 17.1811H9.64812V15.7842C9.64812 15.014 9.02154 14.3874 8.25131 14.3874L5.79735 14.3874C5.02714 14.3874 4.40053 15.014 4.40053 15.7843L4.40054 17.1811ZM9.92448 17.7337H4.12422C3.97161 17.7337 3.8479 17.61 3.8479 17.4574V15.7842C3.8479 14.7093 4.72242 13.8348 5.79736 13.8348L8.25134 13.8348C9.32629 13.8348 10.2008 14.7093 10.2008 15.7843V17.4574C10.2008 17.61 10.0771 17.7337 9.92448 17.7337ZM7.02433 10.3856C6.33014 10.3856 5.7653 10.9504 5.7653 11.6446C5.7653 12.3389 6.33014 12.9037 7.02433 12.9037C7.71856 12.9036 8.28336 12.3389 8.28336 11.6446C8.28336 10.9503 7.71855 10.3856 7.02433 10.3856ZM7.02433 13.4563C6.02538 13.4563 5.21266 12.6436 5.21266 11.6446C5.21266 10.6456 6.02538 9.83293 7.02433 9.83293C8.02329 9.83289 8.83602 10.6457 8.83602 11.6446C8.83602 12.6436 8.02329 13.4563 7.02433 13.4563ZM19.8746 11.6103H11.0695C10.9169 11.6103 10.7932 11.4866 10.7932 11.334C10.7932 11.1814 10.9169 11.0577 11.0695 11.0577L19.8746 11.0577C20.0272 11.0577 20.1509 11.1814 20.1509 11.334C20.1509 11.4866 20.0272 11.6104 19.8746 11.6103ZM19.8746 14.0597H11.0695C10.9169 14.0597 10.7932 13.936 10.7932 13.7833C10.7932 13.6307 10.9169 13.507 11.0695 13.507L19.8746 13.507C20.0272 13.507 20.1509 13.6307 20.1509 13.7833C20.1509 13.936 20.0272 14.0597 19.8746 14.0597ZM19.8745 16.509H11.0695C10.9168 16.509 10.7931 16.3853 10.7931 16.2327C10.7931 16.0801 10.9168 15.9564 11.0695 15.9564L19.8745 15.9564C20.0271 15.9564 20.1509 16.0801 20.1509 16.2327C20.1509 16.3853 20.0271 16.5091 19.8745 16.509ZM10.9891 8.94267H9.51355C9.06527 8.94267 8.70063 8.57806 8.70063 8.12984C8.70063 7.68153 9.06527 7.31691 9.51355 7.31691L10.9891 7.31689C11.1417 7.31689 11.2654 7.44064 11.2654 7.59324C11.2654 7.74581 11.1417 7.86958 10.9891 7.86958L9.51355 7.86957C9.37005 7.86957 9.25329 7.98634 9.25329 8.12984C9.25329 8.27332 9.37005 8.3901 9.51355 8.3901L10.9891 8.39006C11.1417 8.39006 11.2654 8.51377 11.2654 8.66644C11.2654 8.81902 11.1417 8.94271 10.9891 8.94267ZM14.3098 8.94267H12.8342C12.6816 8.94267 12.5579 8.81903 12.5579 8.66644C12.5579 8.51376 12.6816 8.39011 12.8342 8.39011L14.3098 8.39006C14.4533 8.39006 14.5701 8.27333 14.5701 8.12984C14.5701 7.9863 14.4533 7.86958 14.3098 7.86958L12.8342 7.86957C12.6816 7.86957 12.5579 7.74585 12.5579 7.59325C12.5579 7.4406 12.6816 7.31691 12.8342 7.31691L14.3098 7.3169C14.758 7.3169 15.1227 7.68157 15.1227 8.12984C15.1227 8.57804 14.758 8.94271 14.3098 8.94267Z" fill="black"/>
<path fill-rule="evenodd" clip-rule="evenodd" d="M11.2654 8.38968H12.558V5.00975H11.2654V8.38968ZM12.8343 8.94228H10.9891C10.8365 8.94228 10.7128 8.81865 10.7128 8.66606V4.73335C10.7128 4.58078 10.8365 4.45707 10.9891 4.45707L12.8343 4.45703C12.9869 4.45703 13.1106 4.58081 13.1106 4.7334V8.66603C13.1106 8.81865 12.9869 8.94232 12.8343 8.94228Z" fill="black"/>
</g>
<defs>
<clipPath id="clip0_1_5245">
<rect width="24" height="24" fill="white"/>
</clipPath>
</defs>
</svg>
