<svg width="14" height="15" viewBox="0 0 14 15" fill="none" xmlns="http://www.w3.org/2000/svg">
<path d="M7.00008 14.0801C6.07108 14.0801 5.19608 13.9026 4.37508 13.5476C3.55408 13.1926 2.83908 12.7101 2.23008 12.1001C1.62008 11.4916 1.13758 10.7766 0.782576 9.95508C0.427576 9.13408 0.250076 8.25908 0.250076 7.33008C0.250076 6.39858 0.427576 5.52283 0.782576 4.70283C1.13808 3.88283 1.62058 3.16833 2.23008 2.55933C2.83858 1.95033 3.55358 1.46833 4.37508 1.11333C5.19608 0.757828 6.07108 0.580078 7.00008 0.580078C7.93158 0.580078 8.80733 0.757578 9.62733 1.11258C10.4473 1.46808 11.1618 1.95058 11.7708 2.56008C12.3798 3.16908 12.8618 3.88333 13.2168 4.70283C13.5723 5.52283 13.7501 6.39858 13.7501 7.33008C13.7501 8.25908 13.5726 9.13408 13.2176 9.95508C12.8626 10.7761 12.3801 11.4911 11.7701 12.1001C11.1611 12.7096 10.4468 13.1921 9.62733 13.5476C8.80733 13.9026 7.93158 14.0801 7.00008 14.0801ZM7.00008 13.3361C7.44008 12.7706 7.80308 12.2153 8.08908 11.6703C8.37458 11.1253 8.60683 10.5153 8.78583 9.84033H5.21433C5.41233 10.5533 5.64933 11.1823 5.92533 11.7273C6.20133 12.2723 6.55958 12.8086 7.00008 13.3361ZM6.04533 13.2236C5.69533 12.8111 5.37583 12.3011 5.08683 11.6936C4.79783 11.0866 4.58283 10.4686 4.44183 9.83958H1.56483C1.99483 10.7726 2.60408 11.5376 3.39258 12.1346C4.18158 12.7316 5.06558 13.0946 6.04458 13.2236M7.95408 13.2236C8.93308 13.0946 9.81708 12.7316 10.6061 12.1346C11.3951 11.5376 12.0043 10.7726 12.4338 9.83958H9.55833C9.36833 10.4781 9.12908 11.1011 8.84058 11.7086C8.55158 12.3156 8.25608 12.8206 7.95408 13.2236ZM1.25883 9.08958H4.28508C4.22808 8.78208 4.18808 8.48233 4.16508 8.19033C4.14108 7.89833 4.12908 7.61158 4.12908 7.33008C4.12908 7.04858 4.14083 6.76183 4.16433 6.46983C4.18783 6.17783 4.22783 5.87783 4.28433 5.56983H1.26033C1.17883 5.82983 1.11508 6.11308 1.06908 6.41958C1.02308 6.72608 1.00008 7.02958 1.00008 7.33008C1.00008 7.63108 1.02283 7.93458 1.06833 8.24058C1.11433 8.54708 1.17808 8.83008 1.25958 9.08958M5.03583 9.08958H8.96433C9.02133 8.78208 9.06133 8.48708 9.08433 8.20458C9.10833 7.92258 9.12033 7.63108 9.12033 7.33008C9.12033 7.02908 9.10858 6.73758 9.08508 6.45558C9.06158 6.17308 9.02158 5.87808 8.96508 5.57058H5.03508C4.97858 5.87808 4.93858 6.17308 4.91508 6.45558C4.89158 6.73758 4.87983 7.02908 4.87983 7.33008C4.87983 7.63108 4.89158 7.92258 4.91508 8.20458C4.93858 8.48708 4.97933 8.78208 5.03583 9.08958ZM9.71508 9.08958H12.7406C12.8221 8.82958 12.8858 8.54658 12.9318 8.24058C12.9778 7.93458 13.0006 7.63108 13.0001 7.33008C13.0001 7.02908 12.9773 6.72558 12.9318 6.41958C12.8858 6.11308 12.8221 5.83008 12.7406 5.57058H9.71433C9.77133 5.87808 9.81133 6.17783 9.83433 6.46983C9.85833 6.76183 9.87033 7.04858 9.87033 7.33008C9.87033 7.61158 9.85858 7.89833 9.83508 8.19033C9.81158 8.48233 9.77158 8.78233 9.71508 9.09033M9.55908 4.82058H12.4346C11.9951 3.86858 11.3931 3.10358 10.6286 2.52558C9.86358 1.94758 8.97233 1.58008 7.95483 1.42308C8.30483 1.88308 8.61958 2.40958 8.89908 3.00258C9.17808 3.59508 9.39808 4.20108 9.55908 4.82058ZM5.21433 4.82058H8.78583C8.58783 4.11658 8.34358 3.48008 8.05308 2.91108C7.76308 2.34158 7.41208 1.81258 7.00008 1.32408C6.58858 1.81258 6.23758 2.34158 5.94708 2.91108C5.65708 3.48008 5.41283 4.11658 5.21433 4.82058ZM1.56558 4.82058H4.44108C4.60208 4.20108 4.82208 3.59508 5.10108 3.00258C5.38058 2.40958 5.69533 1.88283 6.04533 1.42233C5.01833 1.57983 4.12483 1.94983 3.36483 2.53233C2.60483 3.11533 2.00483 3.87783 1.56483 4.81983" fill="black"/>
</svg>
