<svg width="32" height="32" viewBox="0 0 32 32" fill="none" xmlns="http://www.w3.org/2000/svg">
<path fill-rule="evenodd" clip-rule="evenodd" d="M16 10.6668C13.0534 10.6668 10.6667 13.0535 10.6667 16.0002C10.6667 18.9468 13.0534 21.3335 16 21.3335C18.9467 21.3335 21.3334 18.9468 21.3334 16.0002C21.3334 13.0535 18.9467 10.6668 16 10.6668ZM27.92 14.6668C27.3067 9.10683 22.8934 4.6935 17.3334 4.08016V1.3335H14.6667V4.08016C9.10671 4.6935 4.69337 9.10683 4.08004 14.6668H1.33337V17.3335H4.08004C4.69337 22.8935 9.10671 27.3068 14.6667 27.9202V30.6668H17.3334V27.9202C22.8934 27.3068 27.3067 22.8935 27.92 17.3335H30.6667V14.6668H27.92ZM16 25.3335C10.84 25.3335 6.66671 21.1602 6.66671 16.0002C6.66671 10.8402 10.84 6.66683 16 6.66683C21.16 6.66683 25.3334 10.8402 25.3334 16.0002C25.3334 21.1602 21.16 25.3335 16 25.3335Z" fill="white"/>
</svg>
