<svg width="24" height="24" viewBox="0 0 24 24" fill="none" xmlns="http://www.w3.org/2000/svg">
<path d="M20.968 18.4478C20.9583 18.7929 20.8793 19.1326 20.7358 19.4467C20.5922 19.7607 20.3871 20.0427 20.1324 20.2759C19.8778 20.5091 19.5788 20.6887 19.2534 20.8041C18.928 20.9196 18.5827 20.9684 18.238 20.9478C16.085 20.9598 13.932 20.9478 11.779 20.9478C11.6464 20.9478 11.5192 20.8951 11.4254 20.8013C11.3317 20.7076 11.279 20.5804 11.279 20.4478C11.279 20.3152 11.3317 20.188 11.4254 20.0942C11.5192 20.0004 11.6464 19.9478 11.779 19.9478C13.979 19.9478 16.179 19.9798 18.379 19.9478C19.486 19.9318 19.968 19.0998 19.968 18.1098V5.64677C19.9757 5.33203 19.8872 5.02244 19.7142 4.7594C19.5412 4.49635 19.292 4.29238 19 4.17477C18.6547 4.08055 18.2955 4.04838 17.939 4.07977H11.779C11.6464 4.07977 11.5192 4.02709 11.4254 3.93332C11.3317 3.83956 11.279 3.71238 11.279 3.57977C11.279 3.44716 11.3317 3.31998 11.4254 3.22622C11.5192 3.13245 11.6464 3.07977 11.779 3.07977C14.003 3.07977 16.244 2.99477 18.466 3.07977C18.8063 3.08838 19.1414 3.16457 19.452 3.30391C19.7625 3.44326 20.0423 3.64298 20.2749 3.89144C20.5076 4.13991 20.6885 4.43216 20.8071 4.75119C20.9257 5.07022 20.9798 5.40967 20.966 5.74977L20.968 18.4478Z" fill="black"/>
<path d="M3.17603 11.6629C3.09154 11.7448 3.04208 11.8563 3.03803 11.9739C3.03803 11.9889 3.03803 12.0019 3.03203 12.0169C3.02603 12.0319 3.03203 12.0439 3.03803 12.0579C3.04203 12.1758 3.09148 12.2876 3.17603 12.3699L6.84503 16.0389C6.93933 16.13 7.06563 16.1804 7.19673 16.1792C7.32783 16.1781 7.45323 16.1255 7.54594 16.0328C7.63864 15.9401 7.69122 15.8147 7.69236 15.6836C7.6935 15.5525 7.64311 15.4262 7.55203 15.3319L4.73703 12.5159H15.479C15.6116 12.5159 15.7388 12.4632 15.8326 12.3694C15.9263 12.2757 15.979 12.1485 15.979 12.0159C15.979 11.8833 15.9263 11.7561 15.8326 11.6623C15.7388 11.5686 15.6116 11.5159 15.479 11.5159H4.73703L7.55203 8.69989C7.64311 8.60559 7.6935 8.47929 7.69236 8.34819C7.69122 8.2171 7.63864 8.09169 7.54594 7.99899C7.45323 7.90628 7.32783 7.8537 7.19673 7.85256C7.06563 7.85142 6.93933 7.90182 6.84503 7.99289L3.17603 11.6629Z" fill="black"/>
</svg>
