<svg width="16" height="14" viewBox="0 0 16 14" fill="none" xmlns="http://www.w3.org/2000/svg">
<path d="M15.7037 10.7124V8.90237C15.7037 8.08971 15.3185 7.46174 14.8148 7.38786V1.10818C14.8148 0.480211 14.4296 0 13.9259 0H2.07407C1.57037 0 1.18519 0.480211 1.18519 1.10818V7.38786C0.681481 7.46174 0.296296 8.08971 0.296296 8.90237V10.7124C0.118519 10.934 0 11.2665 0 11.5989V12.0053C0 12.6332 0.385185 13.1873 0.888889 13.2612V13.6306C0.888889 13.8522 1.00741 14 1.18519 14H1.77778C1.95556 14 2.07407 13.8522 2.07407 13.6306V13.2612H13.9259V13.6306C13.9259 13.8522 14.0444 14 14.2222 14H14.8148C14.9926 14 15.1111 13.8522 15.1111 13.6306V13.2612C15.6148 13.1873 16 12.6332 16 12.0053V11.5989C16 11.2665 15.8815 10.934 15.7037 10.7124ZM1.77778 1.10818C1.77778 0.886543 1.8963 0.738786 2.07407 0.738786H13.9259C14.1037 0.738786 14.2222 0.886543 14.2222 1.10818V7.38786H13.6296V5.79947C13.6296 5.02375 13.1259 4.43272 12.5333 4.43272H10.0148C9.39259 4.43272 8.91852 5.06069 8.91852 5.79947V7.38786H7.14074V5.79947C7.14074 5.02375 6.63704 4.43272 6.04444 4.43272H3.52593C2.9037 4.43272 2.42963 5.06069 2.42963 5.79947V7.38786H1.83704V1.10818H1.77778ZM13.037 7.38786H9.48148V5.79947C9.48148 5.43008 9.71852 5.1715 9.98519 5.1715H12.5037C12.8 5.1715 13.0074 5.46702 13.0074 5.79947V7.38786H13.037ZM6.51852 7.38786H2.96296V5.79947C2.96296 5.43008 3.2 5.1715 3.46667 5.1715H5.98519C6.28148 5.1715 6.48889 5.46702 6.48889 5.79947V7.38786H6.51852ZM1.3037 8.12665H1.48148H2.66667H6.81482H9.18519H13.3333H14.5185H14.6963C14.8741 8.12665 15.1111 8.4591 15.1111 8.90237V10.343C15.0815 10.343 15.0222 10.343 14.9926 10.343H1.00741C0.948148 10.343 0.918519 10.343 0.888889 10.343V8.90237C0.888889 8.4591 1.0963 8.12665 1.3037 8.12665ZM15.4074 12.0422C15.4074 12.3377 15.2 12.5594 14.9926 12.5594H1.00741C0.8 12.5594 0.592593 12.3008 0.592593 12.0422V11.6359C0.592593 11.3404 0.8 11.0818 1.00741 11.0818H14.963C15.2 11.0818 15.3778 11.3404 15.3778 11.5989V12.0422H15.4074Z" fill="#060711"/>
</svg>
