<svg width="16" height="16" viewBox="0 0 16 16" fill="none" xmlns="http://www.w3.org/2000/svg">
<g clip-path="url(#clip0_152_4322)">
<path d="M3.90504 7.37988H-0.0174561" stroke="#060711" stroke-linecap="round" stroke-linejoin="round"/>
<path d="M16.02 7.37988H7.58252" stroke="#060711" stroke-linecap="round" stroke-linejoin="round"/>
<path d="M12.77 4.63989V5.29739" stroke="#060711" stroke-linecap="round" stroke-linejoin="round"/>
<path d="M10.77 5.29739V4.63989" stroke="#060711" stroke-linecap="round" stroke-linejoin="round"/>
<path d="M11.77 5.29739V4.63989" stroke="#060711" stroke-linecap="round" stroke-linejoin="round"/>
<path d="M4.19997 13.8L3.90247 14.9075" stroke="#060711" stroke-linecap="round" stroke-linejoin="round"/>
<path d="M7.5825 8.88745H15V9.88745C15 10.9483 14.5786 11.9657 13.8284 12.7159C13.0783 13.466 12.0609 13.8875 11 13.8875H5C3.93913 13.8875 2.92172 13.466 2.17157 12.7159C1.42143 11.9657 1 10.9483 1 9.88745V8.88745H3.905" stroke="#060711" stroke-linecap="round" stroke-linejoin="round"/>
<path d="M12.77 3.48242H10.77" stroke="#060711" stroke-linecap="round" stroke-linejoin="round"/>
<path d="M11.77 3.38753V2.70753C11.7707 2.27941 11.941 1.86901 12.2438 1.56628C12.5465 1.26355 12.9569 1.09319 13.385 1.09253C13.8133 1.09253 14.2241 1.26268 14.527 1.56555C14.8299 1.86842 15 2.2792 15 2.70753V7.38003" stroke="#060711" stroke-linecap="round" stroke-linejoin="round"/>
<path d="M11.8 13.8L12.0975 14.9075" stroke="#060711" stroke-linecap="round" stroke-linejoin="round"/>
<path d="M15 7.37988H7.58252V8.88738H15V7.37988Z" stroke="#060711" stroke-linecap="round" stroke-linejoin="round"/>
<path d="M1.00253 8.88745H3.90503V7.37995H1.00253V8.88745Z" stroke="#060711" stroke-linecap="round" stroke-linejoin="round"/>
<path d="M7.58503 10.6299H3.90503V8.88738V6.75488H7.58503V8.88738V10.6299Z" stroke="#060711" stroke-linecap="round" stroke-linejoin="round"/>
<path d="M7.58503 10.6299H3.90503V8.88738V6.75488H7.58503V8.88738V10.6299Z" stroke="#060711" stroke-linecap="round" stroke-linejoin="round"/>
</g>
<defs>
<clipPath id="clip0_152_4322">
<rect width="16" height="16" fill="white"/>
</clipPath>
</defs>
</svg>
