<svg width="225" height="189" viewBox="0 0 225 189" fill="none" xmlns="http://www.w3.org/2000/svg">
<g clip-path="url(#clip0_1_1935)">
<path d="M208.036 116.787C208.072 142.621 200.462 167.733 186.408 188.158H22.1275C8.07351 167.733 0.463903 142.621 0.499821 116.787C0.499821 52.2852 46.9599 0 104.27 0C161.58 0 208.036 52.2852 208.036 116.787Z" fill="white"/>
<path opacity="0.1" d="M208.036 116.787C208.072 142.621 200.462 167.733 186.408 188.158H22.1275C8.07351 167.733 0.463903 142.621 0.499821 116.787C0.499821 52.2852 46.9599 0 104.27 0C161.58 0 208.036 52.2852 208.036 116.787Z" fill="#415A46"/>
<path d="M209.674 1.49353H127.35C119.32 1.49353 112.811 8.8197 112.811 17.857V17.8574C112.811 26.8947 119.32 34.2208 127.35 34.2208H209.674C217.703 34.2208 224.213 26.8947 224.213 17.8574V17.857C224.213 8.8197 217.703 1.49353 209.674 1.49353Z" fill="white"/>
<path d="M209.674 34.5438H127.35C123.429 34.5231 119.676 32.756 116.911 29.6289C114.145 26.5017 112.593 22.2693 112.593 17.8572C112.593 13.4451 114.145 9.21262 116.911 6.08551C119.676 2.9584 123.429 1.19123 127.35 1.17053H209.674C211.626 1.16022 213.562 1.58423 215.369 2.41819C217.176 3.25216 218.818 4.47965 220.202 6.03017C221.586 7.5807 222.685 9.4237 223.434 11.4533C224.184 13.483 224.569 15.6593 224.569 17.8572C224.569 20.0551 224.184 22.2314 223.434 24.261C222.685 26.2907 221.586 28.1337 220.202 29.6842C218.818 31.2347 217.176 32.4622 215.369 33.2962C213.562 34.1301 211.626 34.5541 209.674 34.5438ZM127.35 1.81654C123.57 1.81654 119.945 3.50647 117.272 6.51458C114.599 9.52268 113.098 13.6025 113.098 17.8566C113.098 22.1107 114.599 26.1906 117.272 29.1987C119.945 32.2068 123.57 33.8967 127.35 33.8967H209.674C213.453 33.8967 217.078 32.2068 219.751 29.1987C222.424 26.1906 223.925 22.1107 223.925 17.8566C223.925 13.6025 222.424 9.52268 219.751 6.51458C217.078 3.50647 213.453 1.81654 209.674 1.81654H127.35Z" fill="#474646"/>
<path d="M59.9059 38.664C59.9059 38.664 59.0198 50.4727 56.5889 54.7151C49.5906 66.9279 47.4007 80.7804 54.0999 88.1739C60.7992 95.5674 104.255 96.5342 107.81 79.9068C110.803 65.9082 104.879 64.2785 103.614 52.6559C103.042 47.3972 101.414 36.3615 101.414 36.3615" fill="#474646"/>
<path d="M96.9857 77.0592C96.9104 77.0482 96.0778 92.5964 80.0292 91.2409C68.9187 90.3042 64.9573 77.0361 64.7013 77.0361C65.8992 76.7494 67.9166 76.3328 68.4485 76.0135C70.1981 74.9553 72.362 73.8545 72.9265 70.0306C73.2526 67.8283 72.7002 56.5517 72.8701 54.3208L89.9245 58.605C89.6861 63.3143 88.0183 74.2322 93.864 76.1643C94.8379 76.4862 95.8857 76.7799 96.9857 77.0592Z" fill="#E98862"/>
<path opacity="0.5" d="M90.1648 71.7047C89.8976 70.7357 89.7256 69.7368 89.6518 68.7257C89.4642 66.4183 89.5016 64.0947 89.7633 61.7965C86.2973 61.2699 83.0319 59.6597 80.3383 57.1489C80.0216 58.4652 78.2801 64.2168 78.7625 65.4677C79.673 67.8308 83.9554 71.7047 90.1648 71.7047Z" fill="#474646"/>
<path d="M87.7358 66.8589C81.0013 67.4568 72.3505 64.2565 70.7075 54.1443L69.2246 45.0201C67.5816 34.9079 70.9684 25.739 79.4281 23.9977C87.8878 22.2564 95.5429 29.1522 97.1862 39.2644L97.8424 43.3042C98.4731 47.1843 99.7512 65.7919 87.7358 66.8589Z" fill="#E98862"/>
<path d="M90.485 52.8728L90.5017 52.8699C90.8443 52.7965 91.1832 52.7019 91.5166 52.5865C92.0146 52.41 92.6668 52.1171 92.585 51.6113C92.4914 51.035 90.0787 45.1071 89.8041 44.4329C89.7789 44.3762 89.7351 44.3328 89.682 44.3118C89.6288 44.2907 89.5705 44.2937 89.5193 44.3202C89.4682 44.3466 89.4281 44.3944 89.4076 44.4534C89.3871 44.5124 89.3878 44.5781 89.4095 44.6366C90.4384 47.1612 92.0948 51.3114 92.1577 51.6994C92.101 51.8785 91.2743 52.2132 90.4237 52.3894C90.369 52.4014 90.3205 52.4365 90.2882 52.4876C90.2558 52.5387 90.2422 52.6018 90.2501 52.6639C90.2579 52.726 90.2867 52.7824 90.3305 52.8212C90.3742 52.8601 90.4295 52.8786 90.485 52.8728Z" fill="#474646"/>
<path d="M89.2102 57.2249C90.5895 57.0329 91.9095 56.4788 93.0636 55.6073C93.112 55.5723 93.1461 55.5171 93.1583 55.4539C93.1706 55.3906 93.16 55.3245 93.1289 55.27C93.0978 55.2155 93.0487 55.1772 92.9925 55.1634C92.9363 55.1497 92.8775 55.1616 92.8292 55.1966C90.3317 57.0032 87.8584 57.2814 85.6766 56.0004C85.6325 55.9731 85.5871 55.9486 85.5406 55.927C85.4866 55.9047 85.4269 55.9074 85.3747 55.9346C85.3224 55.9618 85.2819 56.0112 85.2621 56.072C85.2422 56.1328 85.2447 56.2 85.2688 56.2588C85.293 56.3175 85.3369 56.3631 85.3909 56.3855C85.4079 56.3935 85.4366 56.4108 85.476 56.4343C86.6232 57.11 87.9233 57.3852 89.2102 57.2249Z" fill="#474646"/>
<path d="M62.4477 48.1496L70.0308 46.6388C75.7817 44.0662 77.5777 32.9013 77.5777 32.9013C77.5777 32.9013 84.5039 40.5928 101.414 36.3625C101.414 36.3625 98.1728 9.83472 73.1838 17.3688C65.1262 19.7979 59.3032 28.8813 59.9558 41.0802C60.4131 49.6277 62.4477 48.1496 62.4477 48.1496Z" fill="#474646"/>
<path d="M71.7335 57.117C69.1627 57.6463 66.5755 54.9797 66.1053 52.0862C65.635 49.1928 67.46 47.1678 70.0308 46.6389L71.6706 48.3049L73.9437 56.6619L71.7335 57.117Z" fill="#E98862"/>
<path d="M91.6943 39.7823C92.3428 39.2852 93.0967 38.9903 93.8793 38.9275C94.2727 38.8929 94.6685 38.9254 95.0534 39.0236C95.4416 39.1208 95.8174 39.2725 96.172 39.4751L96.1831 39.481C96.2223 39.5009 96.2669 39.5029 96.3075 39.4865C96.348 39.4701 96.3813 39.4366 96.4003 39.3931C96.4193 39.3496 96.4225 39.2995 96.4093 39.2534C96.3961 39.2072 96.3675 39.1687 96.3295 39.1458C95.9541 38.913 95.5542 38.7343 95.1391 38.614C94.7211 38.4909 94.2891 38.4392 93.8575 38.4606C92.9828 38.4976 92.1331 38.7981 91.3969 39.3308C91.3695 39.351 91.3459 39.3771 91.3275 39.4075C91.3091 39.438 91.2962 39.4722 91.2895 39.5083C91.2829 39.5443 91.2826 39.5815 91.2887 39.6177C91.2948 39.6539 91.3072 39.6884 91.3251 39.7192C91.343 39.75 91.3662 39.7765 91.3933 39.7972C91.4203 39.818 91.4507 39.8325 91.4828 39.84C91.5148 39.8475 91.5478 39.8478 91.58 39.8409C91.6121 39.8341 91.6428 39.8201 91.6701 39.7999L91.676 39.7955L91.6943 39.7823Z" fill="#474646"/>
<path d="M84.7743 40.7183C83.9188 40.5092 83.0291 40.5622 82.1979 40.8717C81.787 41.0218 81.3984 41.2404 81.0451 41.5203C80.6934 41.7963 80.3741 42.1211 80.0947 42.4871C80.0798 42.505 80.068 42.5259 80.0603 42.5489C80.0525 42.5718 80.0488 42.5962 80.0494 42.6208C80.0506 42.6704 80.0693 42.7173 80.1013 42.7514C80.1333 42.7855 80.176 42.8038 80.22 42.8025C80.2641 42.8011 80.3058 42.7801 80.3361 42.7441L80.3449 42.7338C80.614 42.4044 80.919 42.1145 81.2525 41.8709C81.5823 41.6269 81.9431 41.4405 82.3225 41.3181C83.0761 41.0682 83.875 41.0476 84.638 41.2582L84.6569 41.2638C84.7209 41.2825 84.7888 41.272 84.8459 41.2343C84.9029 41.1967 84.9443 41.1351 84.961 41.0632C84.9777 40.9912 84.9683 40.9147 84.9349 40.8505C84.9015 40.7863 84.8468 40.7397 84.7828 40.7209L84.7743 40.7183Z" fill="#474646"/>
<path d="M89.4903 59.5201C89.7403 59.4899 89.9876 59.4358 90.2293 59.3582C90.2847 59.3407 90.3317 59.2991 90.3598 59.2427C90.388 59.1862 90.3951 59.1194 90.3795 59.0571C90.364 58.9947 90.327 58.9419 90.2768 58.9102C90.2267 58.8785 90.1673 58.8705 90.1119 58.888C88.6571 59.3483 87.8346 58.7196 87.8 58.6924C87.7532 58.6549 87.6949 58.6398 87.6382 58.6506C87.5815 58.6614 87.5309 58.6971 87.4976 58.7498C87.4642 58.8026 87.4508 58.8681 87.4604 58.932C87.47 58.9958 87.5017 59.0528 87.5486 59.0903C88.1322 59.4819 88.8184 59.6338 89.4903 59.5201Z" fill="#474646"/>
<path d="M70.038 46.4993C75.1517 44.4732 76.8994 40.5579 77.4652 37.6299C77.8315 35.6771 77.8315 33.6597 77.4652 31.7068L77.307 31.7524C77.6677 33.6798 77.6666 35.6707 77.3038 37.5976C76.7458 40.4775 75.0209 44.3293 69.9829 46.3268L70.038 46.4993Z" fill="#474646"/>
<path opacity="0.1" d="M83.6709 53.5685C84.7796 53.442 85.6115 52.5975 85.529 51.6822C85.4466 50.767 84.481 50.1276 83.3723 50.2541C82.2636 50.3806 81.4317 51.2251 81.5141 52.1403C81.5966 53.0556 82.5622 53.695 83.6709 53.5685Z" fill="#474646"/>
<path opacity="0.1" d="M95.4183 50.1512C95.5031 51.0651 96.4684 51.7038 97.5773 51.579C97.7689 51.557 97.958 51.5127 98.1415 51.4468C98.21 50.3604 98.2295 49.3143 98.2165 48.3453C97.9106 48.2527 97.5921 48.2253 97.2772 48.2645C96.1684 48.3893 95.3371 49.2335 95.4183 50.1512Z" fill="#474646"/>
<path d="M46.5716 169.441L44.6459 188.633H114.469L113.392 169.32L46.5716 169.441Z" fill="#474646"/>
<path d="M79.661 87.3766C68.5427 86.7872 68.0747 76.1658 68.0747 76.1658C68.0747 76.1658 62.5658 76.5667 58.9034 77.1242C52.908 78.0371 46.5521 80.3542 43.6675 85.9646C41.594 89.9988 41.0947 90.7289 42.981 113.493C44.3468 129.976 46.5717 169.441 46.5717 169.441L113.392 169.321C113.392 169.321 116.366 118.71 116.927 111.29C117.997 97.1255 119.687 77.1616 116.1 76.1651C111.921 75.0041 98.2782 76.9128 93.8657 76.1651C93.791 76.1541 94.802 88.1801 79.661 87.3766Z" fill="#BCB8B1"/>
<path d="M198.087 31.8577C198.184 31.6107 198.325 31.3885 198.501 31.2048C198.677 31.0211 198.885 30.8797 199.111 30.7892C199.337 30.6988 199.577 30.6611 199.817 30.6786C200.056 30.6961 200.29 30.7683 200.504 30.8909C200.911 31.1443 201.217 31.5621 201.361 32.0599C201.505 32.5576 201.475 33.0982 201.278 33.5722L200.311 36.0282L206.523 29.854C207.203 29.154 208.436 28.7844 209.083 29.6947C209.352 30.0267 209.513 30.4516 209.54 30.8999C209.567 31.3483 209.458 31.7937 209.231 32.1635C209.24 32.1693 209.247 32.1762 209.254 32.184C209.258 32.1904 209.261 32.197 209.264 32.2039L210.313 31.1244C210.506 30.9258 210.736 30.778 210.986 30.6915C211.236 30.605 211.5 30.5819 211.759 30.6241C212.018 30.6662 212.265 30.7724 212.483 30.9351C212.701 31.0978 212.884 31.3129 213.02 31.5648C213.228 31.972 213.305 32.4477 213.237 32.9113C213.17 33.3749 212.962 33.798 212.649 34.1089L212.202 34.568C212.209 34.5894 212.211 34.6118 212.21 34.6341C212.572 34.4044 212.994 34.3255 213.402 34.4113C213.81 34.4971 214.179 34.7421 214.442 35.1032C214.725 35.519 214.856 36.04 214.81 36.5608C214.764 37.0816 214.544 37.5633 214.195 37.9086L213.098 39.0376C213.124 39.0339 213.15 39.0372 213.174 39.0471C213.199 39.0571 213.221 39.0735 213.238 39.0949C213.258 39.1214 213.271 39.154 213.274 39.1885C213.641 39.0866 214.026 39.1193 214.375 39.2818C214.723 39.4443 215.016 39.728 215.211 40.0914C215.42 40.4986 215.496 40.9743 215.429 41.4379C215.361 41.9015 215.153 42.3246 214.84 42.6354L205.489 52.2628C204.181 53.6095 202.545 54.4858 200.791 54.7793C199.038 55.0728 197.246 54.7701 195.646 53.9101L190.495 51.1411L198.087 31.8577Z" fill="#E98862"/>
<g opacity="0.2">
<path opacity="0.2" d="M203.111 38.3105C203.14 38.3458 203.18 38.3669 203.223 38.3693C203.266 38.3716 203.307 38.355 203.339 38.3229L209.24 32.4432C209.256 32.4272 209.269 32.4078 209.279 32.3861C209.288 32.3645 209.294 32.3409 209.295 32.3169C209.296 32.2928 209.293 32.2687 209.286 32.2459C209.279 32.2231 209.268 32.2021 209.254 32.184C209.24 32.166 209.223 32.1513 209.204 32.1407C209.184 32.1301 209.163 32.1239 209.142 32.1225C209.121 32.121 209.099 32.1243 209.079 32.1321C209.059 32.14 209.04 32.1523 209.024 32.1682L203.121 38.0484C203.105 38.0644 203.092 38.0838 203.083 38.1055C203.073 38.1272 203.068 38.1507 203.067 38.1748C203.065 38.1988 203.068 38.2229 203.075 38.2457C203.082 38.2685 203.093 38.2895 203.107 38.3075L203.111 38.3105Z" fill="#474646"/>
</g>
<g opacity="0.2">
<path opacity="0.2" d="M205.344 41.3111C205.373 41.3465 205.413 41.3677 205.456 41.3701C205.498 41.3725 205.54 41.3559 205.572 41.324L212.157 34.7615C212.174 34.7455 212.187 34.7261 212.196 34.7045C212.205 34.6828 212.211 34.6592 212.212 34.6352C212.213 34.6111 212.211 34.587 212.204 34.5642C212.197 34.5414 212.186 34.5204 212.171 34.5023C212.142 34.4673 212.102 34.4463 212.059 34.4434C212.016 34.4405 211.974 34.4561 211.941 34.4869L205.356 41.049C205.339 41.065 205.326 41.0844 205.317 41.1061C205.308 41.1278 205.302 41.1514 205.301 41.1754C205.3 41.1995 205.303 41.2236 205.31 41.2464C205.317 41.2692 205.328 41.2902 205.342 41.3082L205.344 41.3111Z" fill="#474646"/>
</g>
<g opacity="0.2">
<path opacity="0.2" d="M207.745 44.5767C207.774 44.6121 207.814 44.6333 207.856 44.6357C207.899 44.6381 207.941 44.6216 207.973 44.5896L213.226 39.3551C213.259 39.3228 213.278 39.2773 213.281 39.2287C213.284 39.18 213.269 39.1322 213.24 39.0958C213.212 39.0593 213.171 39.0372 213.128 39.0343C213.085 39.0313 213.042 39.0479 213.01 39.0802L207.757 44.3147C207.741 44.3307 207.728 44.35 207.718 44.3717C207.709 44.3934 207.703 44.4169 207.702 44.441C207.701 44.465 207.704 44.4892 207.711 44.512C207.718 44.5347 207.728 44.5558 207.743 44.5738L207.745 44.5767Z" fill="#474646"/>
</g>
<path d="M192.131 38.6639L156.719 71.3127L107.699 76.2899C104.555 76.5864 101.635 78.2386 99.5484 80.9014C97.4617 83.5642 96.3699 87.0315 96.5012 90.5789C96.6325 94.1264 97.9766 97.4795 100.253 99.9378C102.529 102.396 105.561 103.769 108.716 103.771C109.062 103.771 109.409 103.754 109.759 103.721L162.627 98.3771C165.131 98.1387 167.51 97.0378 169.438 95.2242L206.525 58.1936L192.131 38.6639Z" fill="#BCB8B1"/>
<path d="M199.985 36.9454L201.278 33.5722C201.475 33.0982 201.504 32.5576 201.361 32.0599C201.217 31.5621 200.911 31.1443 200.504 30.8909C200.29 30.7683 200.056 30.6961 199.817 30.6786C199.577 30.6611 199.337 30.6988 199.111 30.7892C198.884 30.8797 198.677 31.0211 198.501 31.2048C198.325 31.3885 198.184 31.6107 198.087 31.8577" fill="#E98862"/>
<path d="M107.529 138.162C107.494 138.683 107.284 139.17 106.941 139.524C106.598 139.877 106.149 140.071 105.684 140.065L104.198 140.085C104.219 140.102 104.237 140.124 104.249 140.149C104.261 140.175 104.267 140.203 104.267 140.232C104.268 140.267 104.258 140.302 104.24 140.33C104.573 140.529 104.841 140.843 105.005 141.226C105.168 141.608 105.218 142.04 105.148 142.457C105.061 142.917 104.836 143.329 104.511 143.623C104.186 143.918 103.78 144.078 103.363 144.075L90.6927 144.229C88.9199 144.252 87.1814 143.678 85.7005 142.581C84.2195 141.484 83.0636 139.914 82.3811 138.072L80.1794 132.142L86.9221 130.527L87.0832 128.636L97.2638 123.467C97.4826 123.356 97.7192 123.296 97.9592 123.291C98.1992 123.286 98.4375 123.337 98.6597 123.439C98.8819 123.541 99.0833 123.693 99.2515 123.886C99.4198 124.078 99.5514 124.308 99.6384 124.56C99.7915 125.054 99.7723 125.595 99.5847 126.074C99.397 126.553 99.0549 126.934 98.6274 127.14L96.4502 128.244L104.738 128.306C105.661 128.295 106.798 128.943 106.741 130.105C106.745 130.555 106.615 130.993 106.369 131.348C106.124 131.703 105.779 131.953 105.391 132.059C105.391 132.07 105.393 132.079 105.393 132.09L105.388 132.111L106.81 132.094C107.071 132.091 107.331 132.153 107.569 132.276C107.807 132.399 108.018 132.581 108.186 132.807C108.354 133.033 108.475 133.298 108.541 133.584C108.607 133.869 108.616 134.167 108.566 134.457C108.481 134.916 108.256 135.328 107.932 135.622C107.607 135.916 107.202 136.075 106.785 136.072L106.177 136.082C106.169 136.1 106.159 136.117 106.148 136.134C106.553 136.235 106.913 136.494 107.166 136.865C107.419 137.236 107.547 137.695 107.529 138.162Z" fill="#E98862"/>
<g opacity="0.2">
<path opacity="0.2" d="M97.1849 132.047C97.1857 132.095 97.2032 132.141 97.2337 132.175C97.2642 132.208 97.3053 132.227 97.348 132.227L105.229 132.273C105.273 132.273 105.314 132.254 105.345 132.22C105.375 132.185 105.393 132.139 105.393 132.09C105.393 132.041 105.375 131.995 105.345 131.96C105.314 131.926 105.273 131.906 105.229 131.906L97.348 131.86C97.3048 131.86 97.2633 131.879 97.2327 131.914C97.2021 131.948 97.1849 131.995 97.1849 132.044V132.047Z" fill="#474646"/>
</g>
<g opacity="0.2">
<path opacity="0.2" d="M97.0708 135.959C97.0716 136.007 97.0891 136.053 97.1196 136.086C97.1501 136.12 97.1911 136.139 97.2339 136.139L106.029 136.191C106.073 136.191 106.114 136.171 106.145 136.137C106.175 136.102 106.193 136.056 106.193 136.007C106.191 135.959 106.173 135.913 106.143 135.879C106.113 135.845 106.072 135.825 106.029 135.824L97.2339 135.772C97.1906 135.772 97.1491 135.792 97.1186 135.826C97.088 135.86 97.0708 135.907 97.0708 135.956V135.959Z" fill="#474646"/>
</g>
<g opacity="0.2">
<path opacity="0.2" d="M96.9257 140.194C96.9264 140.243 96.9439 140.288 96.9744 140.322C97.0049 140.356 97.046 140.375 97.0887 140.375L104.105 140.416C104.148 140.416 104.189 140.396 104.22 140.362C104.251 140.328 104.268 140.281 104.268 140.232C104.268 140.184 104.251 140.137 104.22 140.102C104.189 140.068 104.148 140.049 104.105 140.049L97.0887 140.008C97.0455 140.008 97.004 140.027 96.9734 140.061C96.9428 140.096 96.9257 140.142 96.9257 140.191V140.194Z" fill="#474646"/>
</g>
<path d="M90.0383 148.474L36.9891 159.109C34.7604 159.775 32.4098 159.718 30.2086 158.945C28.0073 158.172 26.0452 156.714 24.5484 154.74C23.0516 152.766 22.0813 150.355 21.7493 147.787C21.4174 145.219 21.7373 142.597 22.6722 140.225L41.9916 89.6453C44.731 82.6964 51.5017 79.5621 57.6749 82.645C60.6397 84.1253 62.9606 86.8705 64.127 90.2767C65.2935 93.683 65.2099 97.4712 63.8948 100.808L52.5495 131.076L88.028 125.771L90.0383 148.474Z" fill="#BCB8B1"/>
<path d="M46.1314 157.53C46.1466 157.53 46.1618 157.527 46.1764 157.522L90.0833 148.65C90.1241 148.637 90.1587 148.606 90.1797 148.565C90.2007 148.523 90.2065 148.474 90.1958 148.428L88.1859 124.99C88.1752 124.944 88.1487 124.904 88.1121 124.879C88.0755 124.854 88.0318 124.846 87.9902 124.858L52.8431 130.812L64.0393 100.887C64.0555 100.844 64.0563 100.795 64.0415 100.751C64.0266 100.707 63.9974 100.671 63.9597 100.651C63.922 100.63 63.8787 100.627 63.8389 100.642C63.7991 100.656 63.7658 100.687 63.7457 100.728L52.4028 130.997C52.3898 131.028 52.3848 131.063 52.3885 131.097C52.3921 131.131 52.4042 131.163 52.4234 131.19C52.4426 131.217 52.4681 131.237 52.4969 131.248C52.5258 131.26 52.5569 131.261 52.5867 131.254L87.9103 125.254L89.84 148.346L46.0861 157.171C46.0481 157.183 46.0154 157.21 45.9939 157.247C45.9724 157.285 45.9636 157.329 45.9691 157.373C45.9747 157.417 45.9942 157.457 46.024 157.486C46.0538 157.515 46.092 157.531 46.1314 157.531V157.53Z" fill="#E0E0E0"/>
<path d="M48.1589 131.92C48.1705 131.92 48.1821 131.919 48.1935 131.916L52.5848 131.255C52.6059 131.25 52.6259 131.241 52.6437 131.227C52.6615 131.213 52.6767 131.196 52.6884 131.175C52.7001 131.155 52.7082 131.132 52.712 131.109C52.7159 131.085 52.7155 131.06 52.711 131.036C52.7064 131.013 52.6976 130.99 52.6853 130.97C52.673 130.951 52.6572 130.934 52.639 130.921C52.6208 130.908 52.6005 130.899 52.5793 130.895C52.5581 130.891 52.5363 130.891 52.5153 130.897L48.124 131.557C48.0849 131.567 48.0503 131.593 48.027 131.63C48.0036 131.666 47.9931 131.711 47.9974 131.756C48.0017 131.801 48.0206 131.843 48.0504 131.873C48.0802 131.903 48.1188 131.92 48.1589 131.92V131.92Z" fill="#474646"/>
<path d="M117.548 103.163C117.589 103.163 117.629 103.145 117.659 103.114C117.689 103.083 117.708 103.04 117.711 102.994L118.438 92.4082C118.441 92.3595 118.427 92.3113 118.399 92.2742C118.37 92.2372 118.33 92.2143 118.287 92.2105C118.244 92.2068 118.201 92.2225 118.168 92.2543C118.135 92.286 118.115 92.3312 118.111 92.3799L117.385 102.965C117.382 103.014 117.396 103.062 117.424 103.099C117.452 103.135 117.492 103.158 117.535 103.162C117.539 103.163 117.544 103.163 117.548 103.163Z" fill="#474646"/>
<path d="M95.3176 43.2547C95.9026 43.2547 96.3768 42.7209 96.3768 42.0625C96.3768 41.4041 95.9026 40.8703 95.3176 40.8703C94.7325 40.8703 94.2583 41.4041 94.2583 42.0625C94.2583 42.7209 94.7325 43.2547 95.3176 43.2547Z" fill="#474646"/>
<path d="M84.5805 45.2962C85.1655 45.2962 85.6398 44.7624 85.6398 44.104C85.6398 43.4456 85.1655 42.9118 84.5805 42.9118C83.9955 42.9118 83.5212 43.4456 83.5212 44.104C83.5212 44.7624 83.9955 45.2962 84.5805 45.2962Z" fill="#474646"/>
<path d="M20.1066 189H188.429C188.516 189 188.599 188.961 188.66 188.892C188.721 188.824 188.755 188.73 188.755 188.633C188.755 188.536 188.721 188.442 188.66 188.373C188.599 188.305 188.516 188.266 188.429 188.266H20.1066C20.0201 188.266 19.9372 188.305 19.876 188.373C19.8149 188.442 19.7805 188.536 19.7805 188.633C19.7805 188.73 19.8149 188.824 19.876 188.892C19.9372 188.961 20.0201 189 20.1066 189Z" fill="#292A2E"/>
</g>
<defs>
<clipPath id="clip0_1_1935">
<rect width="224" height="189" fill="white" transform="translate(0.5)"/>
</clipPath>
</defs>
</svg>
