<svg width="183" height="193" viewBox="0 0 183 193" fill="none" xmlns="http://www.w3.org/2000/svg">
<path d="M176.488 104.052L176.341 105.098L182.353 105.843L182.5 104.796L176.488 104.052Z" fill="#2F2E41"/>
<path d="M142.97 30.9175C142.434 29.7232 141.536 28.7025 140.387 27.9819C139.238 27.2613 137.889 26.8723 136.507 26.863H7.49355C5.63905 26.864 3.86079 27.5551 2.54946 28.7845C1.23813 30.014 0.500996 31.6812 0.5 33.4199V186.443C0.500996 188.182 1.23813 189.849 2.54946 191.078C3.86079 192.308 5.63905 192.999 7.49355 193H136.512C138.366 192.998 140.143 192.306 141.454 191.077C142.765 189.848 143.503 188.181 143.505 186.443V33.4199C143.508 32.561 143.328 31.7101 142.975 30.9175H142.97ZM141.947 186.443C141.946 187.795 141.372 189.092 140.352 190.048C139.332 191.004 137.949 191.542 136.507 191.544H7.49355C6.05088 191.544 4.66735 191.006 3.64714 190.05C2.62693 189.094 2.05355 187.796 2.05306 186.444V33.4208C2.05503 32.0685 2.62886 30.7722 3.64872 29.816C4.66858 28.8598 6.05125 28.3218 7.49355 28.32H136.512C137.598 28.3239 138.659 28.6312 139.558 29.2027C140.458 29.7742 141.155 30.5839 141.561 31.5287C141.641 31.7169 141.709 31.909 141.766 32.1042C141.889 32.5335 141.952 32.9761 141.952 33.4208L141.947 186.443Z" fill="#3F3D56"/>
<path d="M116.047 62.9915H77.1864C76.3619 62.9915 75.5711 62.6844 74.988 62.1378C74.405 61.5911 74.0774 60.8497 74.0774 60.0767C74.0774 59.3036 74.405 58.5622 74.988 58.0155C75.5711 57.4689 76.3619 57.1618 77.1864 57.1618H116.047C116.872 57.1618 117.662 57.4689 118.245 58.0155C118.828 58.5622 119.156 59.3036 119.156 60.0767C119.156 60.8497 118.828 61.5911 118.245 62.1378C117.662 62.6844 116.872 62.9915 116.047 62.9915Z" fill="#3F3D56"/>
<path d="M116.047 78.2938H77.1864C76.7777 78.2943 76.373 78.2193 75.9953 78.0731C75.6176 77.9268 75.2744 77.7122 74.9853 77.4414C74.6962 77.1707 74.4668 76.8492 74.3103 76.4953C74.1538 76.1414 74.0732 75.7621 74.0732 75.3789C74.0732 74.9958 74.1538 74.6165 74.3103 74.2626C74.4668 73.9087 74.6962 73.5872 74.9853 73.3165C75.2744 73.0458 75.6176 72.8311 75.9953 72.6849C76.373 72.5386 76.7777 72.4636 77.1864 72.4641H116.047C116.456 72.4636 116.86 72.5386 117.238 72.6849C117.616 72.8311 117.959 73.0458 118.248 73.3165C118.537 73.5872 118.767 73.9087 118.923 74.2626C119.08 74.6165 119.16 74.9958 119.16 75.3789C119.16 75.7621 119.08 76.1414 118.923 76.4953C118.767 76.8492 118.537 77.1707 118.248 77.4414C117.959 77.7122 117.616 77.9268 117.238 78.0731C116.86 78.2193 116.456 78.2943 116.047 78.2938Z" fill="#3F3D56"/>
<path d="M57.2472 87.0068H28.848C27.9207 87.0059 27.0316 86.6601 26.3759 86.0453C25.7201 85.4305 25.3513 84.597 25.3503 83.7275V52.3068C25.3513 51.4373 25.7201 50.6038 26.3759 49.989C27.0316 49.3742 27.9207 49.0284 28.848 49.0275H57.2472C58.1746 49.0284 59.0636 49.3742 59.7194 49.989C60.3751 50.6038 60.7439 51.4373 60.7449 52.3068V83.7275C60.7439 84.597 60.3751 85.4305 59.7194 86.0453C59.0636 86.6601 58.1746 87.0059 57.2472 87.0068Z" fill="#96BF9F"/>
<path d="M115.777 109.627H27.9525C27.1279 109.627 26.3372 109.32 25.7541 108.774C25.1711 108.227 24.8435 107.486 24.8435 106.712C24.8435 105.939 25.1711 105.198 25.7541 104.651C26.3372 104.105 27.1279 103.798 27.9525 103.798H115.777C116.602 103.798 117.393 104.105 117.976 104.651C118.559 105.198 118.886 105.939 118.886 106.712C118.886 107.486 118.559 108.227 117.976 108.774C117.393 109.32 116.602 109.627 115.777 109.627Z" fill="#CCCCCC"/>
<path d="M115.777 124.93H27.9525C27.1279 124.93 26.3372 124.623 25.7541 124.076C25.1711 123.529 24.8435 122.788 24.8435 122.015C24.8435 121.242 25.1711 120.5 25.7541 119.954C26.3372 119.407 27.1279 119.1 27.9525 119.1H115.777C116.602 119.1 117.393 119.407 117.976 119.954C118.559 120.5 118.886 121.242 118.886 122.015C118.886 122.788 118.559 123.529 117.976 124.076C117.393 124.623 116.602 124.93 115.777 124.93Z" fill="#CCCCCC"/>
<path d="M115.777 140.232H27.9525C27.1287 140.231 26.339 139.923 25.7568 139.377C25.1747 138.83 24.8477 138.089 24.8477 137.317C24.8477 136.545 25.1747 135.804 25.7568 135.257C26.339 134.711 27.1287 134.403 27.9525 134.402H115.777C116.186 134.402 116.591 134.477 116.968 134.623C117.346 134.769 117.689 134.984 117.978 135.255C118.268 135.525 118.497 135.847 118.653 136.201C118.81 136.555 118.891 136.934 118.891 137.317C118.891 137.7 118.81 138.08 118.653 138.433C118.497 138.787 118.268 139.109 117.978 139.38C117.689 139.65 117.346 139.865 116.968 140.011C116.591 140.157 116.186 140.232 115.777 140.232Z" fill="#CCCCCC"/>
<path d="M115.777 155.534H27.9525C27.1279 155.534 26.3372 155.227 25.7541 154.681C25.1711 154.134 24.8435 153.393 24.8435 152.619C24.8435 151.846 25.1711 151.105 25.7541 150.558C26.3372 150.012 27.1279 149.705 27.9525 149.705H115.777C116.602 149.705 117.393 150.012 117.976 150.558C118.559 151.105 118.886 151.846 118.886 152.619C118.886 153.393 118.559 154.134 117.976 154.681C117.393 155.227 116.602 155.534 115.777 155.534Z" fill="#CCCCCC"/>
<path d="M115.777 170.837H27.9525C27.1279 170.837 26.3372 170.53 25.7541 169.983C25.1711 169.436 24.8435 168.695 24.8435 167.922C24.8435 167.149 25.1711 166.407 25.7541 165.861C26.3372 165.314 27.1279 165.007 27.9525 165.007H115.777C116.602 165.007 117.393 165.314 117.976 165.861C118.559 166.407 118.886 167.149 118.886 167.922C118.886 168.695 118.559 169.436 117.976 169.983C117.393 170.53 116.602 170.837 115.777 170.837Z" fill="#CCCCCC"/>
<path d="M143.935 56.2602C160.505 56.2602 173.938 43.6659 173.938 28.1301C173.938 12.5943 160.505 0 143.935 0C127.364 0 113.931 12.5943 113.931 28.1301C113.931 43.6659 127.364 56.2602 143.935 56.2602Z" fill="#34A853"/>
<path d="M140.961 38.861C140.286 38.8621 139.629 38.6573 139.089 38.2777L139.056 38.2541L132.005 33.1969C131.678 32.9622 131.404 32.6695 131.198 32.3354C130.992 32.0014 130.858 31.6326 130.805 31.2501C130.751 30.8676 130.778 30.479 130.884 30.1063C130.99 29.7336 131.174 29.3841 131.424 29.078C131.675 28.7718 131.987 28.5148 132.343 28.3218C132.7 28.1287 133.093 28.0034 133.501 27.9529C133.909 27.9023 134.323 27.9276 134.721 28.0273C135.118 28.127 135.491 28.2992 135.818 28.5339L140.385 31.8176L151.177 18.6166C151.428 18.3105 151.74 18.0537 152.096 17.8607C152.452 17.6678 152.845 17.5425 153.253 17.492C153.661 17.4415 154.075 17.4668 154.473 17.5664C154.87 17.6661 155.242 17.8381 155.569 18.0728L155.57 18.0734L155.503 18.1606L155.572 18.0734C156.23 18.548 156.661 19.2481 156.77 20.0201C156.878 20.7922 156.656 21.5731 156.151 22.1915L143.457 37.7118C143.163 38.0694 142.785 38.3587 142.353 38.5574C141.921 38.7561 141.446 38.8588 140.964 38.8575L140.961 38.861Z" fill="white"/>
</svg>
