<svg width="18" height="18" viewBox="0 0 18 18" fill="none" xmlns="http://www.w3.org/2000/svg">
<path d="M13.707 11.7072L16.355 14.3552C16.4397 14.4399 16.5069 14.5404 16.5528 14.6511C16.5986 14.7618 16.6222 14.8804 16.6222 15.0002C16.6222 15.12 16.5986 15.2386 16.5528 15.3493C16.5069 15.4599 16.4397 15.5605 16.355 15.6452C15.4237 16.5763 14.1879 17.1403 12.8743 17.2336C11.5607 17.3269 10.2575 16.9433 9.20397 16.1532L7.62897 14.9712C5.8854 13.6636 4.33658 12.1147 3.02897 10.3712L1.84697 8.79617C1.05682 7.74264 0.67319 6.43947 0.766507 5.12587C0.859823 3.81227 1.42382 2.57641 2.35497 1.64517C2.43966 1.56044 2.54021 1.49324 2.65088 1.44738C2.76156 1.40153 2.88018 1.37793 2.99997 1.37793C3.11976 1.37793 3.23838 1.40153 3.34905 1.44738C3.45973 1.49324 3.56028 1.56044 3.64497 1.64517L6.29297 4.29317C6.48044 4.48069 6.58576 4.735 6.58576 5.00017C6.58576 5.26533 6.48044 5.51964 6.29297 5.70717L5.27197 6.72817C5.19268 6.80731 5.14034 6.90942 5.12239 7.02C5.10444 7.13058 5.12179 7.24401 5.17197 7.34417C6.35851 9.71734 8.2828 11.6416 10.656 12.8282C10.7561 12.8783 10.8696 12.8957 10.9801 12.8777C11.0907 12.8598 11.1928 12.8075 11.272 12.7282L12.292 11.7082C12.3848 11.6152 12.4951 11.5414 12.6165 11.4911C12.7379 11.4408 12.8681 11.4149 12.9995 11.4149C13.1309 11.4149 13.261 11.4408 13.3824 11.4911C13.5038 11.5414 13.6141 11.6152 13.707 11.7082V11.7072Z" stroke="black"/>
</svg>
