<svg width="12" height="15" viewBox="0 0 12 15" fill="none" xmlns="http://www.w3.org/2000/svg">
<path d="M5.625 10.5024H6.375V6.2627H5.625V10.5024ZM6 5.07995C6.131 5.07995 6.2405 5.0357 6.3285 4.9472C6.417 4.8587 6.46125 4.7492 6.46125 4.6187C6.46125 4.4877 6.417 4.37795 6.3285 4.28945C6.2405 4.20095 6.131 4.1567 6 4.1567C5.869 4.1567 5.7595 4.20095 5.6715 4.28945C5.583 4.37795 5.53875 4.4877 5.53875 4.6187C5.53875 4.7492 5.583 4.8587 5.6715 4.9472C5.7595 5.0357 5.869 5.07995 6 5.07995ZM6 14.0514C4.4935 13.6039 3.24175 12.6912 2.24475 11.3132C1.24825 9.9347 0.75 8.38195 0.75 6.65495V2.59895L6 0.637695L11.25 2.59895V6.65495C11.25 8.38195 10.7517 9.93445 9.75525 11.3124C8.75825 12.6909 7.5065 13.6039 6 14.0514ZM6 13.2549C7.3 12.8424 8.375 12.0174 9.225 10.7799C10.075 9.54245 10.5 8.16745 10.5 6.65495V3.1112L6 1.4387L1.5 3.1112V6.65495C1.5 8.16745 1.925 9.54245 2.775 10.7799C3.625 12.0174 4.7 12.8424 6 13.2549Z" fill="black"/>
</svg>
