<svg width="17" height="19" viewBox="0 0 17 19" fill="none" xmlns="http://www.w3.org/2000/svg">
<path d="M4.64257 3.14258H11.3574C11.4273 3.14258 11.4944 3.1148 11.5439 3.06535C11.5933 3.0159 11.6211 2.94884 11.6211 2.87891C11.6211 2.80898 11.5933 2.74191 11.5439 2.69246C11.4944 2.64301 11.4273 2.61523 11.3574 2.61523H4.64257C4.57264 2.61523 4.50557 2.64301 4.45613 2.69246C4.40668 2.74191 4.3789 2.80898 4.3789 2.87891C4.3789 2.94884 4.40668 3.0159 4.45613 3.06535C4.50557 3.1148 4.57264 3.14258 4.64257 3.14258ZM4.64257 6.30664H11.3574C11.4273 6.30664 11.4944 6.27886 11.5439 6.22941C11.5933 6.17997 11.6211 6.1129 11.6211 6.04297C11.6211 5.97304 11.5933 5.90597 11.5439 5.85652C11.4944 5.80708 11.4273 5.7793 11.3574 5.7793H4.64257C4.57264 5.7793 4.50557 5.80708 4.45613 5.85652C4.40668 5.90597 4.3789 5.97304 4.3789 6.04297C4.3789 6.1129 4.40668 6.17997 4.45613 6.22941C4.50557 6.27886 4.57264 6.30664 4.64257 6.30664ZM4.64257 4.72461H11.3574C11.4273 4.72461 11.4944 4.69683 11.5439 4.64738C11.5933 4.59793 11.6211 4.53087 11.6211 4.46094C11.6211 4.39101 11.5933 4.32394 11.5439 4.27449C11.4944 4.22505 11.4273 4.19727 11.3574 4.19727H4.64257C4.57264 4.19727 4.50557 4.22505 4.45613 4.27449C4.40668 4.32394 4.3789 4.39101 4.3789 4.46094C4.3789 4.53087 4.40668 4.59793 4.45613 4.64738C4.50557 4.69683 4.57264 4.72461 4.64257 4.72461ZM16.7683 3.72663L16.3954 3.35376C16.2471 3.20542 16.0459 3.12209 15.8361 3.12209C15.6263 3.12209 15.4251 3.20542 15.2768 3.35376L14.0469 4.58363V1.64844C14.0465 1.29891 13.9075 0.963804 13.6603 0.716648C13.4131 0.469493 13.078 0.330469 12.7285 0.330078L3.27148 0.330078C2.92195 0.330469 2.58684 0.469493 2.33969 0.716648C2.09253 0.963804 1.95351 1.29891 1.95312 1.64844V15.3418H0.529114C0.459184 15.3418 0.392118 15.3696 0.34267 15.419C0.293222 15.4685 0.265442 15.5355 0.265442 15.6055V17.0117C0.265833 17.3612 0.404856 17.6964 0.652012 17.9435C0.899168 18.1907 1.23427 18.3297 1.5838 18.3301H12.7635C12.7731 18.3301 12.7826 18.3295 12.7921 18.3285C13.1302 18.3117 13.449 18.1658 13.6825 17.9207C13.916 17.6756 14.0465 17.3502 14.0469 17.0117V7.56682L16.7683 4.84537C16.9164 4.6969 16.9996 4.49573 16.9996 4.286C16.9996 4.07627 16.9164 3.8751 16.7683 3.72663ZM1.5838 17.8027C1.37409 17.8025 1.17303 17.7191 1.02474 17.5708C0.876444 17.4225 0.793028 17.2214 0.792786 17.0117V15.8691H11.3045V16.959C11.3043 17.265 11.407 17.5622 11.5961 17.8027H1.5838ZM13.5195 15.6021C13.5195 15.6032 13.5193 15.6043 13.5193 15.6055V16.959C13.5193 17.1828 13.4305 17.3974 13.2722 17.5556C13.114 17.7138 12.8994 17.8027 12.6756 17.8027C12.4518 17.8027 12.2372 17.7138 12.079 17.5556C11.9207 17.3974 11.8318 17.1828 11.8318 16.959V15.6055C11.8318 15.5355 11.8041 15.4685 11.7546 15.419C11.7052 15.3696 11.6381 15.3418 11.5682 15.3418C11.5622 15.3418 11.5564 15.3423 11.5506 15.3427C11.5448 15.3423 11.539 15.3418 11.533 15.3418H2.48046V1.64844C2.4807 1.43872 2.56412 1.23766 2.71241 1.08937C2.8607 0.94108 3.06176 0.857664 3.27148 0.857422H12.7285C12.9382 0.857664 13.1393 0.94108 13.2876 1.08937C13.4359 1.23766 13.5193 1.43872 13.5195 1.64844V5.11098L8.63245 9.99805H4.64257C4.57264 9.99805 4.50557 10.0258 4.45613 10.0753C4.40668 10.1247 4.3789 10.1918 4.3789 10.2617C4.3789 10.3316 4.40668 10.3987 4.45613 10.4482C4.50557 10.4976 4.57264 10.5254 4.64257 10.5254H8.10511L7.0732 11.5573C7.06634 11.5642 7.05986 11.5715 7.0538 11.5791L7.05309 11.5801H4.64257C4.57264 11.5801 4.50557 11.6079 4.45613 11.6573C4.40668 11.7068 4.3789 11.7738 4.3789 11.8438C4.3789 11.9137 4.40668 11.9807 4.45613 12.0302C4.50557 12.0796 4.57264 12.1074 4.64257 12.1074H6.86047L6.50891 13.1621H4.64257C4.57264 13.1621 4.50557 13.1899 4.45613 13.2393C4.40668 13.2888 4.3789 13.3559 4.3789 13.4258C4.3789 13.4957 4.40668 13.5628 4.45613 13.6122C4.50557 13.6617 4.57264 13.6895 4.64257 13.6895H6.61132C6.63037 13.6894 6.64936 13.6873 6.66796 13.6832C6.70689 13.6884 6.7465 13.6845 6.78369 13.6719L8.4617 13.1126C8.46346 13.112 8.46504 13.1112 8.46673 13.1106C8.48241 13.105 8.49752 13.0979 8.51187 13.0895C8.51433 13.088 8.51686 13.0867 8.51929 13.0851C8.52526 13.0813 8.5311 13.0771 8.53686 13.0728C8.5389 13.0712 8.54108 13.0698 8.54305 13.0682C8.55064 13.0622 8.55789 13.0557 8.56478 13.0489L9.50626 12.1074H11.3574C11.4273 12.1074 11.4944 12.0796 11.5439 12.0302C11.5933 11.9807 11.6211 11.9137 11.6211 11.8438C11.6211 11.7738 11.5933 11.7068 11.5439 11.6573C11.4944 11.6079 11.4273 11.5801 11.3574 11.5801H10.0336L13.5195 8.09416V15.6021ZM7.37488 12.2319L7.89016 12.7472L7.11722 13.0049L7.37488 12.2319ZM8.37834 12.4895L7.63257 11.7438L13.9691 5.40724L13.9702 5.40618L14.6593 4.71705L15.405 5.46282L8.37834 12.4895ZM16.3954 4.47247L15.778 5.08988L15.0322 4.34411L15.6497 3.72663C15.6742 3.70214 15.7032 3.68271 15.7352 3.66946C15.7672 3.65621 15.8015 3.64939 15.8361 3.64939C15.8708 3.64939 15.905 3.65621 15.937 3.66946C15.969 3.68271 15.9981 3.70214 16.0225 3.72663L16.3954 4.09953C16.4448 4.14901 16.4726 4.21606 16.4726 4.28596C16.4726 4.35587 16.4448 4.42292 16.3954 4.4724L16.3954 4.47247Z" fill="black"/>
</svg>
