<svg width="18" height="19" viewBox="0 0 18 19" fill="none" xmlns="http://www.w3.org/2000/svg">
<path fill-rule="evenodd" clip-rule="evenodd" d="M5.34375 8.76758C5.80973 8.76758 6.1875 8.3898 6.1875 7.92383C6.1875 7.45785 5.80973 7.08008 5.34375 7.08008C4.87776 7.08008 4.5 7.45785 4.5 7.92383C4.5 8.3898 4.87776 8.76758 5.34375 8.76758ZM5.34375 8.20508C5.49908 8.20508 5.625 8.07913 5.625 7.92383C5.625 7.76852 5.49908 7.64258 5.34375 7.64258C5.18842 7.64258 5.0625 7.76852 5.0625 7.92383C5.0625 8.07913 5.18842 8.20508 5.34375 8.20508ZM6.1875 11.2988C6.1875 11.7648 5.80973 12.1426 5.34375 12.1426C4.87776 12.1426 4.5 11.7648 4.5 11.2988C4.5 10.8329 4.87776 10.4551 5.34375 10.4551C5.80973 10.4551 6.1875 10.8329 6.1875 11.2988ZM5.625 11.2988C5.625 11.4541 5.49908 11.5801 5.34375 11.5801C5.18842 11.5801 5.0625 11.4541 5.0625 11.2988C5.0625 11.1435 5.18842 11.0176 5.34375 11.0176C5.49908 11.0176 5.625 11.1435 5.625 11.2988ZM5.34375 15.5176C5.80973 15.5176 6.1875 15.1398 6.1875 14.6738C6.1875 14.2079 5.80973 13.8301 5.34375 13.8301C4.87776 13.8301 4.5 14.2079 4.5 14.6738C4.5 15.1398 4.87776 15.5176 5.34375 15.5176ZM5.34375 14.9551C5.49908 14.9551 5.625 14.8291 5.625 14.6738C5.625 14.5185 5.49908 14.3926 5.34375 14.3926C5.18842 14.3926 5.0625 14.5185 5.0625 14.6738C5.0625 14.8291 5.18842 14.9551 5.34375 14.9551Z" fill="black"/>
<path d="M7.875 7.64258C7.71969 7.64258 7.59375 7.76852 7.59375 7.92383C7.59375 8.07913 7.71969 8.20508 7.875 8.20508H14.625C14.7803 8.20508 14.9062 8.07913 14.9062 7.92383C14.9062 7.76852 14.7803 7.64258 14.625 7.64258H7.875ZM7.875 14.3926C7.71969 14.3926 7.59375 14.5185 7.59375 14.6738C7.59375 14.8291 7.71969 14.9551 7.875 14.9551H14.625C14.7803 14.9551 14.9062 14.8291 14.9062 14.6738C14.9062 14.5185 14.7803 14.3926 14.625 14.3926H7.875ZM7.59375 11.2988C7.59375 11.1435 7.71969 11.0176 7.875 11.0176H14.625C14.7803 11.0176 14.9062 11.1435 14.9062 11.2988C14.9062 11.4541 14.7803 11.5801 14.625 11.5801H7.875C7.71969 11.5801 7.59375 11.4541 7.59375 11.2988Z" fill="black"/>
<path fill-rule="evenodd" clip-rule="evenodd" d="M5.09375 2.5625L4.25 2V3.6875H3.6875C2.75552 3.6875 2 4.44302 2 5.375V16.0625C2 16.9945 2.75552 17.75 3.6875 17.75H16.0625C16.9945 17.75 17.75 16.9945 17.75 16.0625V5.375C17.75 4.44302 16.9945 3.6875 16.0625 3.6875H15.5V2L14.6562 2.5625L14.0938 2L13.5312 2.5625L12.9688 2L12.4062 2.5625L11.5625 2V3.6875H8.1875V2L7.34375 2.5625L6.78125 2L6.21875 2.5625L5.65625 2L5.09375 2.5625ZM7.625 3.05104L7.27209 3.28632L6.78125 2.79549L6.21875 3.35799L5.65625 2.79549L5.16542 3.28632L4.8125 3.05104V5.44896L5.16542 5.21368L5.65625 5.70451L6.21875 5.14201L6.78125 5.70451L7.27209 5.21368L7.625 5.44896V3.05104ZM4.25 4.25V6.5L5.09375 5.9375L5.65625 6.5L6.21875 5.9375L6.78125 6.5L7.34375 5.9375L8.1875 6.5V4.25H11.5625V6.5L12.4062 5.9375L12.9688 6.5L13.5312 5.9375L14.0938 6.5L14.6562 5.9375L15.5 6.5V4.25H16.0625C16.6838 4.25 17.1875 4.75368 17.1875 5.375V16.0625C17.1875 16.6838 16.6838 17.1875 16.0625 17.1875H3.6875C3.06618 17.1875 2.5625 16.6838 2.5625 16.0625V5.375C2.5625 4.75368 3.06618 4.25 3.6875 4.25H4.25ZM14.9375 3.05104L14.5846 3.28632L14.0938 2.79549L13.5312 3.35799L12.9688 2.79549L12.4779 3.28632L12.125 3.05104V5.44896L12.4779 5.21368L12.9688 5.70451L13.5312 5.14201L14.0938 5.70451L14.5846 5.21368L14.9375 5.44896V3.05104Z" fill="black"/>
</svg>
