<svg width="199" height="201" viewBox="0 0 199 201" fill="none" xmlns="http://www.w3.org/2000/svg">
<g clip-path="url(#clip0_1_1837)">
<path d="M112.814 154.874C160.413 154.874 199 120.204 199 77.4369C199 34.6697 160.413 0 112.814 0C65.2154 0 26.6288 34.6697 26.6288 77.4369C26.6288 120.204 65.2154 154.874 112.814 154.874Z" fill="#F2F2F2"/>
<path d="M169.135 34.6297H11.2553C10.9167 34.6232 10.6481 34.3713 10.6554 34.0671C10.6624 33.7721 10.9269 33.5344 11.2553 33.5281H169.135C169.474 33.5346 169.742 33.7865 169.735 34.0907C169.728 34.3857 169.464 34.6234 169.135 34.6297Z" fill="#CACACA"/>
<path d="M115.33 53.1914H71.6859C68.4077 53.1914 65.7502 55.5791 65.7502 58.5245V58.5246C65.7502 61.47 68.4077 63.8577 71.6859 63.8577H115.33C118.608 63.8577 121.266 61.47 121.266 58.5245C121.266 55.5791 118.608 53.1914 115.33 53.1914Z" fill="white"/>
<path d="M43.4915 74.524H143.525C146.803 74.524 149.46 76.9117 149.46 79.8571C149.46 82.8025 146.803 85.1903 143.525 85.1903H43.4915C40.2133 85.1903 37.5558 82.8025 37.5558 79.8571C37.5558 76.9117 40.2133 74.524 43.4915 74.524Z" fill="white"/>
<path d="M43.4915 95.8566H143.525C146.803 95.8566 149.46 98.2443 149.46 101.19C149.46 104.135 146.803 106.523 143.525 106.523H43.4915C40.2133 106.523 37.5558 104.135 37.5558 101.19C37.5558 98.2443 40.2133 95.8566 43.4915 95.8566Z" fill="white"/>
<path d="M31.095 200.531L30.8596 200.51C22.8719 199.77 15.6511 195.91 11.1154 189.956C9.87308 188.297 8.86817 186.504 8.12439 184.62L8.0529 184.44L8.26455 184.425C10.7914 184.242 13.3873 183.857 14.5404 183.673L7.10448 181.41L7.0585 181.211C6.61764 179.35 7.48132 177.436 9.23978 176.376C11.003 175.264 13.3412 175.229 15.1452 176.286C15.9548 176.75 16.8016 177.211 17.6205 177.656C20.4345 179.185 23.3443 180.766 25.5259 182.93C28.834 186.277 30.2841 190.787 29.4721 195.203L31.095 200.531Z" fill="#F2F2F2"/>
<path d="M58.1244 197.208L61.789 197.208L63.5327 184.507L58.1234 184.507L58.1244 197.208Z" fill="#A0616A"/>
<path d="M57.9952 200.643L69.2653 200.643V200.515C69.2651 198.338 67.3012 196.574 64.8786 196.574L62.8197 195.17L58.9788 196.574L57.995 196.574L57.9952 200.643Z" fill="#2F2E41"/>
<path d="M28.7538 188.088L31.6851 190.064L41.5635 180.844L37.2366 177.928L28.7538 188.088Z" fill="#A0616A"/>
<path d="M26.356 190.766L35.3712 196.843L35.4567 196.74C36.9104 194.999 36.5181 192.529 34.5803 191.222L33.8707 188.99L29.8609 188.041L29.0739 187.511L26.356 190.766Z" fill="#2F2E41"/>
<path d="M40.9363 137.604C40.9363 137.604 41.1386 142.562 41.3938 146.539C41.4357 147.191 39.7352 147.899 39.7792 148.609C39.8084 149.08 40.1281 149.537 40.1578 150.028C40.1891 150.546 39.7478 151.004 39.7792 151.54C39.8099 152.063 40.3134 152.664 40.3438 153.199C40.6706 158.964 41.8553 165.866 40.669 167.795C40.0843 168.746 32.6322 181.918 32.6322 181.918C32.6322 181.918 36.7843 187.514 37.9706 185.648C39.5374 183.185 51.613 171.659 51.613 169.458C51.613 167.259 54.4068 150.783 54.4068 150.783L56.3548 160.534L57.248 162.465L56.9673 163.599L57.5446 165.13L57.5757 166.645L58.1377 169.458C58.1377 169.458 56.4473 191.372 57.3993 191.982C58.3542 192.595 62.9779 193.696 63.5235 192.595C64.0663 191.495 67.5989 169.724 67.5989 169.724C67.5989 169.724 68.1684 159.747 68.7853 150.474C68.8208 149.936 69.242 149.286 69.2746 148.755C69.3132 148.14 69.0463 147.34 69.0818 146.744C69.1204 146.059 69.4585 145.576 69.4911 144.921C69.7432 139.855 68.3281 133.687 67.8773 133.079C66.516 131.246 65.2911 129.78 65.2911 129.78C65.2911 129.78 46.9561 124.368 42.0567 129.868L40.9363 137.604Z" fill="#2F2E41"/>
<path d="M59.223 86.6146L51.9546 85.3085L48.5627 89.4446C42.2336 95.0361 42.1383 99.971 43.2681 107.881V118.983L42.4504 126.426C42.4504 126.426 39.5555 131.866 42.5413 133.133C45.5271 134.399 65.1391 134.292 67.0116 133.786C68.884 133.28 67.261 132.659 66.7693 130.303C65.8456 125.876 66.4635 128.012 66.527 126.602C67.4384 106.385 65.3156 98.0853 65.1001 95.9037L61.4036 89.8799L59.223 86.6146Z" fill="#3F3D56"/>
<path d="M97.5319 102.915C96.7744 104.205 94.9968 104.699 93.5614 104.018C93.4084 103.945 93.2628 103.861 93.1263 103.765L77.4296 112.72L77.4748 107.845L92.723 99.894C93.8091 98.7999 95.6768 98.704 96.8945 99.6799C97.9135 100.496 98.177 101.834 97.5319 102.915Z" fill="#A0616A"/>
<path d="M53.4842 92.261L51.6972 92.0908C50.0459 91.937 48.4259 92.5723 47.4288 93.7649C47.0469 94.2171 46.7726 94.7351 46.6229 95.2867L46.6219 95.2911C46.1736 96.9512 46.8767 98.691 48.406 99.706L54.5782 103.795C58.9097 109.053 67.0502 112.542 76.5991 115.377L91.4416 107.094L86.1917 101.381L76.0112 106.284L60.8784 95.7584L60.8697 95.7521L55.1101 92.418L53.4842 92.261Z" fill="#3F3D56"/>
<path d="M56.7671 83.4078C61.4483 83.4078 65.2431 79.9982 65.2431 75.7922C65.2431 71.5862 61.4483 68.1766 56.7671 68.1766C52.086 68.1766 48.2911 71.5862 48.2911 75.7922C48.2911 79.9982 52.086 83.4078 56.7671 83.4078Z" fill="#A0616A"/>
<path d="M56.9629 83.4095C56.8946 83.4115 56.8261 83.4129 56.7577 83.4145C56.7284 83.4828 56.6968 83.5505 56.6603 83.6168L56.9629 83.4095Z" fill="#2F2E41"/>
<path d="M59.2891 76.0035C59.3024 76.0786 59.3227 76.1525 59.3498 76.2244C59.3386 76.149 59.3183 76.0749 59.2891 76.0035Z" fill="#2F2E41"/>
<path d="M65.3512 68.5025C65.0023 69.4758 64.691 68.2411 63.5433 68.4632C62.1627 68.7304 60.556 68.6386 59.4254 67.8783C57.7408 66.7677 55.5577 66.4687 53.5813 67.0779C51.6467 67.6929 48.4056 68.1265 47.9015 69.9138C47.7263 70.535 47.6567 71.2093 47.232 71.7242C46.8607 72.1743 46.2746 72.431 45.7844 72.7775C44.1295 73.9474 45.3944 77.2712 46.1776 79.0274C46.9609 80.7837 48.7576 82.0631 50.733 82.7184C52.6443 83.3525 54.7187 83.4643 56.7576 83.4145C57.1123 82.5881 56.9591 81.6337 56.6664 80.777C56.3497 79.8496 55.8806 78.9545 55.7483 77.9917C55.6159 77.0289 55.9065 75.9353 56.8051 75.3973C57.6309 74.9028 58.9748 75.204 59.289 76.0035C59.1057 75.004 60.2326 74.0368 61.3945 73.8667C62.642 73.6841 63.8894 74.0888 65.1334 74.2902C66.3773 74.4916 65.9357 69.7863 65.3512 68.5025Z" fill="#2F2E41"/>
<path d="M112.755 88.39C113.545 79.812 106.447 72.2826 96.8994 71.5727C87.3523 70.8628 78.9722 77.2411 78.1821 85.8191C77.3919 94.3971 84.4909 101.926 94.038 102.636C103.585 103.346 111.965 96.968 112.755 88.39Z" fill="#719A7A"/>
<path d="M100.025 80.6108L95.4687 84.7047L90.9123 80.6108C90.1747 79.9481 88.9789 79.9481 88.2413 80.6108C87.5037 81.2735 87.5037 82.348 88.2413 83.0107L92.7977 87.1045L88.2413 91.1984C87.5044 91.8617 87.5055 92.9362 88.2438 93.5983C88.9811 94.2595 90.175 94.2595 90.9123 93.5983L95.4687 89.5044L100.025 93.5983C100.763 94.2604 101.959 94.2594 102.696 93.596C103.432 92.9336 103.432 91.8609 102.696 91.1984L98.1397 87.1045L102.696 83.0107C103.434 82.348 103.434 81.2735 102.696 80.6108C101.958 79.9481 100.763 79.9481 100.025 80.6108Z" fill="white"/>
<path d="M88.6334 74.0053C89.1447 75.3892 88.3105 76.8835 86.7702 77.3429C86.606 77.3919 86.4373 77.4278 86.266 77.4501L82.5911 93.8267L78.7067 90.422L82.8777 75.0315C82.7509 73.5699 83.967 72.2926 85.5938 72.1787C86.955 72.0834 88.2116 72.8385 88.6334 74.0053Z" fill="#A0616A"/>
<path d="M49.5822 95.1879L48.2084 96.2288C46.9417 97.1928 46.3304 98.6831 46.5979 100.155C46.6967 100.716 46.9229 101.252 47.2622 101.731L47.265 101.735C48.288 103.175 50.172 103.923 52.0459 103.635L59.6026 102.463C66.8248 103.296 75.2625 100.433 84.1496 96.2043L87.7733 80.8471L79.5508 80.2959L76.4399 90.2904L57.5102 92.8151L57.4991 92.8164L50.834 94.2425L49.5822 95.1879Z" fill="#3F3D56"/>
<path d="M92.6111 200.906L0.402709 201C0.17958 200.999 -0.000720572 200.836 2.16525e-06 200.636C0.000718116 200.436 0.180595 200.275 0.402709 200.274L92.6111 200.18C92.8342 200.181 93.0145 200.344 93.0138 200.544C93.0131 200.744 92.8332 200.906 92.6111 200.906Z" fill="#CACACA"/>
<path d="M19.2651 27.6527C20.8499 27.6527 22.1346 26.4727 22.1346 25.0171C22.1346 23.5615 20.8499 22.3815 19.2651 22.3815C17.6804 22.3815 16.3957 23.5615 16.3957 25.0171C16.3957 26.4727 17.6804 27.6527 19.2651 27.6527Z" fill="#3F3D56"/>
<path d="M29.1777 27.6527C30.7625 27.6527 32.0472 26.4727 32.0472 25.0171C32.0472 23.5615 30.7625 22.3815 29.1777 22.3815C27.593 22.3815 26.3083 23.5615 26.3083 25.0171C26.3083 26.4727 27.593 27.6527 29.1777 27.6527Z" fill="#3F3D56"/>
<path d="M39.0904 27.6527C40.6751 27.6527 41.9598 26.4727 41.9598 25.0171C41.9598 23.5615 40.6751 22.3815 39.0904 22.3815C37.5056 22.3815 36.2209 23.5615 36.2209 25.0171C36.2209 26.4727 37.5056 27.6527 39.0904 27.6527Z" fill="#3F3D56"/>
<path d="M50.3934 27.1002C50.3052 27.1002 50.2172 27.0695 50.1508 27.0085L48.2147 25.2302C48.0856 25.1117 48.0856 24.9223 48.2147 24.8039L50.1508 23.0257C50.2822 22.9054 50.4972 22.9035 50.6306 23.0209C50.7646 23.1387 50.767 23.3318 50.6359 23.452L48.9319 25.017L50.6359 26.5822C50.767 26.7024 50.7646 26.8955 50.6306 27.0133C50.5647 27.0713 50.479 27.1002 50.3934 27.1002Z" fill="#3F3D56"/>
<path d="M53.6468 27.1002C53.5612 27.1002 53.4755 27.0713 53.4096 27.0132C53.2755 26.8955 53.2732 26.7026 53.4043 26.5821L55.1081 25.017L53.4043 23.452C53.2732 23.3317 53.2755 23.1387 53.4096 23.0209C53.5433 22.903 53.7583 22.9052 53.8894 23.0257L55.8254 24.8038C55.9544 24.9223 55.9544 25.1117 55.8254 25.2302L53.8894 27.0085C53.8229 27.0695 53.735 27.1002 53.6468 27.1002Z" fill="#3F3D56"/>
<path d="M154.935 22.6866H151.335C150.925 22.6866 150.592 22.9853 150.592 23.3542V26.592C150.592 26.9609 150.925 27.2596 151.335 27.2596H154.935C155.346 27.2596 155.682 26.9609 155.682 26.592V23.3542C155.682 22.9853 155.346 22.6866 154.935 22.6866Z" fill="#3F3D56"/>
<path d="M146.113 22.6866H142.513C142.102 22.6866 141.77 22.9853 141.77 23.3542V26.592C141.77 26.9609 142.102 27.2596 142.513 27.2596H146.113C146.524 27.2596 146.86 26.9609 146.86 26.592V23.3542C146.86 22.9853 146.524 22.6866 146.113 22.6866Z" fill="#3F3D56"/>
<path d="M163.248 22.8391H159.648C159.238 22.8391 158.905 23.1378 158.905 23.5067V26.7444C158.905 27.1133 159.238 27.4121 159.648 27.4121H163.248C163.659 27.4121 163.995 27.1133 163.995 26.7444V23.5067C163.995 23.1378 163.659 22.8391 163.248 22.8391Z" fill="#3F3D56"/>
<path d="M108.985 24.0707H80.2077C79.7055 24.0707 79.3017 24.4366 79.3017 24.8848C79.3017 25.3329 79.7055 25.6988 80.2077 25.6988H108.985C109.484 25.6988 109.891 25.3329 109.891 24.8848C109.891 24.4366 109.484 24.0707 108.985 24.0707Z" fill="#3F3D56"/>
</g>
<defs>
<clipPath id="clip0_1_1837">
<rect width="199" height="201" fill="white"/>
</clipPath>
</defs>
</svg>
