<svg width="263" height="198" viewBox="0 0 263 198" fill="none" xmlns="http://www.w3.org/2000/svg">
<g clip-path="url(#clip0_1_1752)">
<path d="M94.4795 113.951C103.458 95.9896 120.586 82.1984 138.716 83.527C125.342 100.065 117.544 121.449 116.701 143.897C116.403 152.555 116.864 162.22 111.809 168.703C108.664 172.737 103.856 174.691 99.1282 175.101C94.4007 175.511 89.6742 174.539 85.0098 173.572L83.8784 173.967C83.4476 153.313 85.5007 131.912 94.4795 113.951Z" fill="#F0F0F0"/>
<path d="M138.743 83.9594C125.336 91.299 113.903 103.557 106.886 118.506C105.368 121.738 104.077 125.167 103.513 128.793C102.949 132.42 103.343 135.872 104.432 139.317C105.428 142.466 106.768 145.557 107.073 148.926C107.395 152.478 106.246 155.799 104.177 158.435C101.646 161.66 98.2468 163.658 94.863 165.481C91.1059 167.505 87.1752 169.54 84.5141 173.317C84.1917 173.775 83.586 173.179 83.9079 172.722C88.5378 166.15 96.463 164.915 101.959 159.621C104.523 157.15 106.448 153.786 106.327 149.844C106.221 146.397 104.842 143.209 103.809 140.03C102.725 136.693 102.184 133.336 102.573 129.778C102.971 126.138 104.147 122.644 105.585 119.382C108.828 112.026 113.266 105.272 118.35 99.4334C124.193 92.7224 131.002 87.1975 138.484 83.0977C138.947 82.8442 139.203 83.7075 138.743 83.9594Z" fill="white"/>
<path d="M108.941 113.51C106.886 111.801 105.432 109.317 104.838 106.501C104.245 103.686 104.551 100.722 105.702 98.1388C105.936 97.6171 106.66 98.0069 106.426 98.5293C105.35 100.932 105.065 103.693 105.622 106.314C106.18 108.935 107.542 111.242 109.465 112.821C109.882 113.165 109.356 113.852 108.941 113.51Z" fill="white"/>
<path d="M103.743 137.796C108.893 136.94 113.57 133.908 116.842 129.305C117.166 128.849 117.772 129.444 117.448 129.9C114.036 134.683 109.162 137.827 103.801 138.704C103.29 138.787 103.234 137.879 103.743 137.796Z" fill="white"/>
<path d="M124.589 93.8429C125.263 94.6926 126.112 95.3387 127.06 95.723C128.008 96.1073 129.025 96.2178 130.02 96.0447C130.529 95.9542 130.585 96.8629 130.078 96.9528C128.978 97.1383 127.855 97.0146 126.807 96.5927C125.759 96.1707 124.818 95.4633 124.065 94.5322C123.988 94.4512 123.941 94.3397 123.933 94.2205C123.925 94.1012 123.958 93.9831 124.024 93.8901C124.094 93.7992 124.192 93.7433 124.298 93.7344C124.404 93.7256 124.508 93.7646 124.589 93.8429Z" fill="white"/>
<path d="M174.79 140.188C174.473 140.255 174.156 140.322 173.837 140.395C169.579 141.319 165.395 142.634 161.325 144.328C161.009 144.453 160.69 144.586 160.377 144.721C150.61 148.921 141.613 155.147 133.845 163.082C130.756 166.243 127.883 169.666 125.251 173.323C121.617 178.372 118.029 184.177 113.28 187.469C112.788 187.819 112.277 188.134 111.751 188.412L84.3898 175.506C84.3405 175.441 84.2884 175.384 84.2389 175.319L83.1257 174.86C83.2499 174.661 83.3824 174.457 83.5066 174.258C83.5782 174.142 83.6559 174.029 83.7275 173.913C83.7772 173.836 83.8271 173.76 83.8681 173.688C83.8846 173.662 83.9013 173.637 83.9152 173.618C83.9562 173.546 84.001 173.484 84.0394 173.419C84.7775 172.278 85.5239 171.141 86.2787 170.007C86.2813 170 86.2813 170 86.29 169.996C92.0604 161.378 98.5143 153.231 105.85 146.458C106.071 146.254 106.294 146.043 106.527 145.846C109.849 142.813 113.383 140.095 117.094 137.717C119.13 136.423 121.222 135.247 123.362 134.193C128.897 131.482 134.773 129.778 140.773 129.143C152.736 127.88 164.92 130.981 174.095 139.527C174.33 139.746 174.558 139.962 174.79 140.188Z" fill="#F0F0F0"/>
<path d="M174.585 140.554C159.994 137.235 144.376 139.195 130.858 146.326C127.935 147.868 125.088 149.721 122.719 152.23C120.348 154.74 118.835 157.766 117.881 161.263C117.009 164.459 116.442 167.844 114.902 170.743C113.278 173.8 110.602 175.665 107.555 176.353C103.827 177.195 100.054 176.463 96.3875 175.602C92.3161 174.646 88.1005 173.579 83.9757 174.773C83.476 174.918 83.3077 174.027 83.8068 173.883C90.9831 171.805 97.965 176.245 105.156 175.78C108.511 175.564 111.83 174.196 113.82 170.965C115.56 168.14 116.147 164.651 117.005 161.406C117.907 157.998 119.252 154.948 121.447 152.373C123.692 149.739 126.481 147.755 129.356 146.135C135.84 142.482 142.959 140.128 150.11 138.947C158.328 137.589 166.69 137.84 174.834 139.688C175.338 139.803 175.086 140.668 174.585 140.554Z" fill="white"/>
<path d="M135.144 143.745C134.408 140.973 134.562 137.994 135.579 135.339C136.596 132.685 138.41 130.528 140.696 129.254C141.16 128.998 141.531 129.804 141.067 130.061C138.936 131.243 137.247 133.252 136.304 135.726C135.362 138.2 135.228 140.976 135.927 143.552C136.078 144.113 135.295 144.301 135.144 143.745Z" fill="white"/>
<path d="M118.135 159.576C122.701 162.419 128.041 163.201 133.09 161.765C133.59 161.622 133.759 162.513 133.259 162.655C128.002 164.138 122.446 163.311 117.701 160.341C117.249 160.058 117.686 159.294 118.135 159.576Z" fill="white"/>
<path d="M158.051 138.754C158.139 139.894 158.475 140.991 159.028 141.947C159.582 142.903 160.335 143.688 161.221 144.23C161.676 144.507 161.239 145.271 160.787 144.996C159.811 144.391 158.979 143.523 158.366 142.469C157.753 141.414 157.376 140.205 157.268 138.946C157.249 138.829 157.27 138.707 157.327 138.607C157.384 138.506 157.473 138.434 157.575 138.405C157.678 138.38 157.787 138.403 157.876 138.468C157.965 138.534 158.028 138.636 158.051 138.754Z" fill="white"/>
<path d="M122.67 161.479C118.838 140.411 114.048 133.386 114.048 133.386L112.219 131.773L110.018 129.829L110.029 129.579L109.507 129.377L109.384 129.269L109.183 129.094L109.151 129.133L109.083 129.213L99.1254 125.364L86.4926 120.485L80.6429 111.838C79.6901 110.43 78.4636 109.292 77.0593 108.513C75.655 107.734 74.1112 107.336 72.5488 107.349L53.8666 107.506C51.3405 107.527 48.9128 108.622 47.0607 110.576L34.7812 123.528L15.6472 133.92L15.6149 133.883L15.414 134.047L12.4576 135.654L12.5796 136.376L10.7498 137.878C10.7498 137.878 5.96008 144.414 2.12826 164.018C1.15349 169.006 0.673675 179.707 0.500487 192.892C0.491787 193.559 0.599785 194.222 0.818196 194.841C1.03661 195.46 1.36108 196.024 1.77274 196.499C2.1844 196.974 2.67503 197.352 3.21612 197.609C3.75721 197.867 4.33796 198 4.92459 198H107.123L119.878 198C120.465 198 121.045 197.867 121.586 197.609C122.126 197.352 122.617 196.975 123.028 196.5C123.44 196.026 123.764 195.463 123.983 194.844C124.202 194.226 124.31 193.564 124.302 192.897C124.133 178.549 123.654 166.889 122.67 161.479Z" fill="#00594E"/>
<path d="M135.783 18.3737C131.806 18.3737 127.993 20.1698 125.182 23.367C122.37 26.5642 120.791 30.9005 120.791 35.4219C120.791 39.9434 122.37 44.2797 125.182 47.4769C127.993 50.6741 131.806 52.4702 135.783 52.4702H247.508C251.484 52.4702 255.297 50.6741 258.109 47.4769C260.921 44.2797 262.5 39.9434 262.5 35.4219C262.5 30.9005 260.921 26.5642 258.109 23.367C255.297 20.1698 251.484 18.3737 247.508 18.3737H135.783Z" fill="#E5E5E5"/>
<path d="M135.783 21.8239C132.611 21.8239 129.57 23.2566 127.327 25.8067C125.085 28.3568 123.825 31.8155 123.825 35.422C123.825 39.0284 125.085 42.4871 127.327 45.0372C129.57 47.5874 132.611 49.02 135.783 49.02H247.508C250.68 49.02 253.721 47.5874 255.964 45.0372C258.206 42.4871 259.466 39.0284 259.466 35.422C259.466 31.8155 258.206 28.3568 255.964 25.8067C253.721 23.2566 250.68 21.8239 247.508 21.8239H135.783Z" fill="white"/>
<path d="M66.1416 99.3676C79.6591 99.3676 90.6172 86.9064 90.6172 71.5348C90.6172 56.1632 79.6591 43.702 66.1416 43.702C52.6241 43.702 41.666 56.1632 41.666 71.5348C41.666 86.9064 52.6241 99.3676 66.1416 99.3676Z" fill="#9E616A"/>
<path d="M59.8802 98.0048C59.7756 97.743 59.6714 97.4803 59.5674 97.2167C59.6075 97.2181 59.6471 97.2247 59.6872 97.2259L59.8802 98.0048Z" fill="#2F2E41"/>
<path d="M40.9853 44.9677C42.2232 43.8448 43.67 42.8115 45.2527 42.8696C46.8354 42.9276 48.4404 44.5531 48.1125 46.3148C51.0196 40.4616 55.6468 35.9597 61.1819 33.5995C66.717 31.2393 72.8064 31.1715 78.3811 33.4081C82.3147 34.9863 86.1723 38.1436 87.0759 42.7744C87.3079 43.9632 87.3577 45.2666 88.0103 46.2319C88.8333 47.449 90.4079 47.7243 91.7044 47.2961C91.7173 47.2918 91.7303 47.2875 91.7432 47.2831C91.9622 47.1981 92.1987 47.1897 92.4219 47.2591C92.6452 47.3285 92.845 47.4725 92.9955 47.6725C93.146 47.8724 93.2402 48.1191 93.2661 48.3806C93.292 48.6422 93.2482 48.9065 93.1405 49.1395L92.0275 51.5C93.4306 51.8557 94.8884 51.8204 96.2769 51.3972C96.5075 51.3285 96.7512 51.3425 96.9746 51.4374C97.198 51.5324 97.39 51.7036 97.5244 51.9276C97.6588 52.1516 97.729 52.4173 97.7253 52.6885C97.7216 52.9596 97.6443 53.2228 97.5038 53.4419C93.8338 59.1719 87.7023 62.872 81.4453 62.8285C76.9982 62.7976 72.5053 61.0547 68.1773 62.2177C66.5029 62.6676 64.9384 63.538 63.5985 64.7652C62.2585 65.9924 61.1772 67.5451 60.4338 69.3095C59.6904 71.0738 59.3038 73.0051 59.3024 74.9615C59.301 76.918 59.6848 78.85 60.4256 80.6157C59.096 78.962 56.5258 79.3535 55.1657 80.975C53.8057 82.5965 53.4536 85.0166 53.5906 87.252C53.8002 90.6709 54.9781 93.8925 56.22 97.028C45.8083 96.6553 35.9606 88.3499 32.6459 77.1166C29.3172 65.8363 32.8058 52.3878 40.9853 44.9677Z" fill="#2F2E41"/>
<path opacity="0.2" d="M24.5903 155.119L31.4552 197.592L35.5743 198L24.5903 155.119Z" fill="black"/>
<path opacity="0.2" d="M100.208 151.915L93.3432 197.562L89.2241 198L100.208 151.915Z" fill="black"/>
<path d="M46.8405 30.6734C45.5243 31.2984 44.1508 30.6134 43.5748 29.0448C42.99 27.4522 43.5362 25.8355 44.8736 25.2005C46.211 24.5654 47.56 25.252 48.1542 26.8703C48.7396 28.4643 48.1993 30.0282 46.8405 30.6734ZM44.3191 22.0657L43.2726 22.5627C43.0111 22.6854 42.7187 22.692 42.4532 22.5812C42.1877 22.4705 41.9684 22.2504 41.8387 21.9646L41.7869 21.8495C40.6608 19.5401 40.5319 16.7333 41.4057 13.5115C42.2152 10.6214 42.5514 8.58883 41.8753 6.74741C41.0935 4.61839 39.4241 3.95147 37.2953 4.91758C36.4696 5.30963 36.2069 5.30338 35.5571 6.03636C35.4158 6.19774 35.2473 6.3251 35.0618 6.41085C34.8762 6.49659 34.6774 6.53897 34.4771 6.53545C34.2835 6.53286 34.0923 6.48596 33.915 6.39754C33.7377 6.30913 33.5779 6.18102 33.445 6.02084C33.1891 5.71216 33.0457 5.30455 33.0438 4.88031C33.042 4.45608 33.1817 4.04684 33.4349 3.73524C34.527 2.43518 35.8443 1.40666 37.3035 0.714596C41.8775 -1.4573 44.18 1.74919 45.2337 4.6187C46.2643 7.42541 45.6846 10.0296 44.7531 13.4022C43.9724 16.2047 44.0179 18.2812 44.9046 20.346C44.9687 20.5021 45.0043 20.6713 45.0094 20.8434C45.0144 21.0156 44.9889 21.1871 44.9342 21.3477C44.8795 21.5084 44.7968 21.6548 44.6911 21.7781C44.5855 21.9015 44.4589 21.9994 44.3191 22.0657Z" fill="#719A7A"/>
<path d="M160.461 43.5528H138.232C138.161 43.5534 138.091 43.538 138.026 43.5077C137.961 43.4773 137.901 43.4326 137.851 43.376C137.801 43.3194 137.761 43.2521 137.734 43.1779C137.707 43.1038 137.693 43.0243 137.693 42.944C137.693 42.8637 137.707 42.7841 137.734 42.71C137.761 42.6359 137.801 42.5685 137.851 42.512C137.901 42.4554 137.961 42.4106 138.026 42.3803C138.091 42.3499 138.161 42.3346 138.232 42.3351H160.461C160.603 42.3362 160.738 42.4008 160.838 42.5149C160.937 42.6289 160.993 42.7832 160.993 42.944C160.993 43.1047 160.937 43.259 160.838 43.373C160.738 43.4871 160.603 43.5517 160.461 43.5528Z" fill="#719A7A"/>
<path d="M188.66 43.7558H166.431C166.361 43.7563 166.291 43.741 166.225 43.7106C166.16 43.6803 166.1 43.6355 166.05 43.5789C166 43.5223 165.96 43.455 165.933 43.3809C165.906 43.3067 165.892 43.2272 165.892 43.1469C165.892 43.0666 165.906 42.9871 165.933 42.9129C165.96 42.8388 166 42.7715 166.05 42.7149C166.1 42.6583 166.16 42.6135 166.225 42.5832C166.291 42.5528 166.361 42.5375 166.431 42.538H188.66C188.731 42.5375 188.801 42.5528 188.866 42.5832C188.932 42.6135 188.991 42.6583 189.041 42.7149C189.091 42.7715 189.131 42.8388 189.158 42.9129C189.186 42.9871 189.199 43.0666 189.199 43.1469C189.199 43.2272 189.186 43.3067 189.158 43.3809C189.131 43.455 189.091 43.5223 189.041 43.5789C188.991 43.6355 188.932 43.6803 188.866 43.7106C188.801 43.741 188.731 43.7563 188.66 43.7558Z" fill="#719A7A"/>
<path d="M216.859 43.9587H194.63C194.489 43.9576 194.354 43.893 194.254 43.7789C194.154 43.6649 194.098 43.5106 194.098 43.3498C194.098 43.1891 194.154 43.0348 194.254 42.9208C194.354 42.8067 194.489 42.7421 194.63 42.741H216.859C216.93 42.7404 217 42.7558 217.065 42.7861C217.131 42.8165 217.19 42.8612 217.24 42.9178C217.29 42.9744 217.33 43.0417 217.357 43.1159C217.385 43.19 217.398 43.2695 217.398 43.3498C217.398 43.4302 217.385 43.5097 217.357 43.5838C217.33 43.658 217.29 43.7253 217.24 43.7819C217.19 43.8384 217.131 43.8832 217.065 43.9136C217 43.9439 216.93 43.9593 216.859 43.9587Z" fill="#719A7A"/>
<path d="M245.059 44.1616H222.829C222.688 44.1605 222.553 44.0959 222.453 43.9818C222.353 43.8678 222.297 43.7135 222.297 43.5528C222.297 43.392 222.353 43.2378 222.453 43.1237C222.553 43.0096 222.688 42.945 222.829 42.9439H245.059C245.2 42.945 245.335 43.0096 245.435 43.1237C245.534 43.2378 245.59 43.392 245.59 43.5528C245.59 43.7135 245.534 43.8678 245.435 43.9818C245.335 44.0959 245.2 44.1605 245.059 44.1616Z" fill="#719A7A"/>
<path d="M149.298 37.9493C151.579 37.9493 153.429 35.8459 153.429 33.2511C153.429 30.6564 151.579 28.553 149.298 28.553C147.016 28.553 145.166 30.6564 145.166 33.2511C145.166 35.8459 147.016 37.9493 149.298 37.9493Z" fill="#719A7A"/>
<path d="M177.667 37.9493C179.949 37.9493 181.799 35.8459 181.799 33.2511C181.799 30.6564 179.949 28.553 177.667 28.553C175.385 28.553 173.536 30.6564 173.536 33.2511C173.536 35.8459 175.385 37.9493 177.667 37.9493Z" fill="#719A7A"/>
<path d="M206.037 37.9493C208.318 37.9493 210.168 35.8459 210.168 33.2511C210.168 30.6564 208.318 28.553 206.037 28.553C203.755 28.553 201.905 30.6564 201.905 33.2511C201.905 35.8459 203.755 37.9493 206.037 37.9493Z" fill="#719A7A"/>
<path d="M234.406 37.9493C236.688 37.9493 238.537 35.8459 238.537 33.2511C238.537 30.6564 236.688 28.553 234.406 28.553C232.124 28.553 230.275 30.6564 230.275 33.2511C230.275 35.8459 232.124 37.9493 234.406 37.9493Z" fill="#719A7A"/>
</g>
<defs>
<clipPath id="clip0_1_1752">
<rect width="262" height="198" fill="white" transform="translate(0.5)"/>
</clipPath>
</defs>
</svg>
