<svg width="213" height="222" viewBox="0 0 213 222" fill="none" xmlns="http://www.w3.org/2000/svg">
<g clip-path="url(#clip0_1_1793)">
<path d="M144.706 137.533C260.299 210.618 222.731 237.851 72.6029 213.047C33.3766 206.567 0.5 179.238 0.5 137.533C0.5 95.8276 32.7816 62.0186 72.6029 62.0186C112.424 62.0186 108.024 114.341 144.706 137.533Z" fill="#BCB8B1"/>
<path opacity="0.1" d="M155.041 208.732C180.261 208.732 200.706 207.004 200.706 204.871C200.706 202.739 180.261 201.01 155.041 201.01C129.82 201.01 109.375 202.739 109.375 204.871C109.375 207.004 129.82 208.732 155.041 208.732Z" fill="black"/>
<path opacity="0.1" d="M64.9788 81.4712C78.3462 81.4712 89.1825 79.7426 89.1825 77.6103C89.1825 75.478 78.3462 73.7495 64.9788 73.7495C51.6114 73.7495 40.775 75.478 40.775 77.6103C40.775 79.7426 51.6114 81.4712 64.9788 81.4712Z" fill="black"/>
<path opacity="0.1" d="M63.7102 87.1148C53.3251 87.1129 43.1513 89.8871 34.364 95.1171C25.5766 100.347 18.5343 107.819 14.0505 116.671C19.2047 111.29 25.4961 106.992 32.5183 104.052C39.5405 101.113 47.1372 99.5979 54.8175 99.6059C85.2137 99.6059 109.856 122.892 109.856 151.614C109.868 159.385 108.03 167.059 104.477 174.067C113.679 164.508 118.769 152.045 118.749 139.123C118.749 110.401 94.1064 87.1148 63.7102 87.1148Z" fill="black"/>
<path opacity="0.3" d="M109.856 151.387C109.869 159.158 108.03 166.832 104.477 173.839C99.3231 179.22 93.0317 183.519 86.0095 186.458C78.9873 189.398 71.3906 190.913 63.7103 190.905C33.3141 190.905 8.67169 167.619 8.67169 138.896C8.65928 131.126 10.4977 123.452 14.0506 116.444C19.2047 111.063 25.4962 106.764 32.5183 103.825C39.5405 100.885 47.1372 99.3708 54.8176 99.3788C85.2138 99.3788 109.856 122.665 109.856 151.387Z" fill="#00594E"/>
<path d="M63.7103 191.16C33.2128 191.16 8.4012 167.715 8.4012 138.896C8.37904 131.086 10.227 123.373 13.8067 116.333C18.3126 107.438 25.3895 99.9294 34.22 94.6737C43.0504 89.4181 53.2742 86.6302 63.7103 86.6321C94.2079 86.6321 119.019 110.078 119.019 138.896C119.02 145.76 117.589 152.556 114.81 158.897C112.031 165.238 107.957 171 102.821 175.853C97.6847 180.707 91.5873 184.556 84.8767 187.183C78.1661 189.809 70.9737 191.16 63.7103 191.16ZM63.7103 87.1432C42.7547 87.1432 23.3577 98.6878 14.2945 116.555C10.7498 123.525 8.91999 131.163 8.94206 138.896C8.94206 167.433 33.5109 190.649 63.7103 190.649C70.9027 190.649 78.0247 189.311 84.6697 186.71C91.3147 184.11 97.3525 180.298 102.438 175.492C107.524 170.686 111.558 164.981 114.31 158.702C117.063 152.423 118.479 145.693 118.478 138.896C118.478 110.359 93.9096 87.1432 63.7103 87.1432Z" fill="white"/>
<path d="M189.629 191.82C185.631 196.761 186.089 203.437 186.089 203.437C186.089 203.437 193.027 202.104 197.024 197.164C201.022 192.224 200.565 185.547 200.565 185.547C200.565 185.547 193.626 186.88 189.629 191.82Z" fill="#D0CDE1"/>
<path d="M192.248 192.93C191.473 199.105 186.222 203.593 186.222 203.593C186.222 203.593 182.228 198.068 183.004 191.893C183.78 185.718 189.031 181.23 189.031 181.23C189.031 181.23 193.024 186.754 192.248 192.93Z" fill="#00594E"/>
<path d="M47.2383 48.2697C59.7811 48.2697 69.9491 38.6615 69.9491 26.8093C69.9491 14.957 59.7811 5.34888 47.2383 5.34888C34.6955 5.34888 24.5276 14.957 24.5276 26.8093C24.5276 38.6615 34.6955 48.2697 47.2383 48.2697Z" fill="#FF6584"/>
<path d="M96.4771 48.6896C96.4881 70.1257 83.0059 77.6156 66.3715 77.6233C65.9851 77.6234 65.6006 77.6195 65.2179 77.6116C64.447 77.5962 63.6841 77.5633 62.9292 77.513C47.9156 76.5154 36.2465 68.6528 36.2362 48.7172C36.2256 28.0864 64.1161 2.03789 66.2078 0.111852C66.2096 0.111852 66.2096 0.111852 66.2115 0.110101C66.291 0.0366959 66.3316 0 66.3316 0C66.3316 0 96.4661 27.2552 96.4771 48.6896Z" fill="#00594E"/>
<path d="M65.2735 74.3448L76.2823 59.7951L65.2466 75.9415L65.2179 77.6116C64.447 77.5962 63.6841 77.5634 62.9292 77.513L64.105 56.0676L64.0957 55.9017L64.116 55.8702L64.2277 53.8438L53.1477 37.6674L64.2602 52.3257L64.2882 52.7554L65.1765 36.5526L55.6897 19.8356L65.2914 33.7051L66.2078 0.111857L66.2114 6.10352e-05L66.2114 0.110106L66.0698 26.6018L75.4982 16.0952L66.0303 28.8833L65.7882 43.3914L74.5936 29.4646L65.7542 45.5243L65.6197 53.5916L78.3988 34.2057L65.5712 56.4058L65.2735 74.3448Z" fill="#3F3D56"/>
<path d="M155.446 60.9713C152.559 56.3621 146.848 56.1473 146.848 56.1473C146.848 56.1473 141.283 55.4748 137.713 62.4946C134.385 69.0378 129.793 75.3553 136.973 76.8869L138.271 73.0722L139.074 77.171C140.096 77.2404 141.122 77.257 142.146 77.2206C149.836 76.986 157.16 77.2892 156.924 74.6816C156.611 71.2152 158.224 65.4063 155.446 60.9713Z" fill="#2F2E41"/>
<path d="M142.71 104.222L143.453 111.239L160.656 109.485L161.027 104.222H142.71Z" fill="#A0616A"/>
<path d="M140.854 108.081L140.359 112.174C140.359 112.174 134.666 119.659 135.161 132.523C135.656 145.388 127.364 202.575 133.305 203.043C139.245 203.511 149.889 204.212 150.384 202.458C150.879 200.704 151.869 134.161 151.869 134.161C151.869 134.161 154.468 202.541 158.923 202.775C163.379 203.009 178.354 203.477 178.354 201.723C178.354 199.968 165.235 121.647 165.235 121.647L163.131 115.098L161.027 107.029C161.027 107.029 147.909 109.134 144.319 108.315C140.73 107.496 140.854 108.081 140.854 108.081Z" fill="#2F2E41"/>
<path d="M146.795 75.6866C151.169 75.6866 154.715 72.3356 154.715 68.2019C154.715 64.0683 151.169 60.7173 146.795 60.7173C142.42 60.7173 138.874 64.0683 138.874 68.2019C138.874 72.3356 142.42 75.6866 146.795 75.6866Z" fill="#A0616A"/>
<path d="M160.656 80.5984L159.152 82.6661L158.189 83.9888L156.572 86.2119L148.527 86.7967C148.527 86.7967 146.573 86.2002 144.318 85.329C143.485 85.0062 142.61 84.646 141.779 84.2636C138.552 82.783 135.963 80.9762 138.874 79.7798C139.391 79.57 139.887 79.318 140.358 79.0267C140.786 78.7623 141.184 78.4574 141.547 78.1168C142.293 77.4107 142.845 76.5434 143.156 75.59C143.466 74.6367 143.526 73.6261 143.329 72.646L151.126 71.5934C150.9 73.4623 152.866 75.5007 155.071 77.1648C155.795 77.7133 156.546 78.2197 157.253 78.6665C159.105 79.8383 160.656 80.5984 160.656 80.5984Z" fill="#A0616A"/>
<path d="M150.013 82.8205C150.013 82.8205 142.401 81.5925 140.669 79.0197C140.669 79.0197 133.181 79.8968 133.8 83.6391C134.419 87.3814 140.607 107.847 140.607 107.847C140.607 107.847 156.077 105.041 161.77 107.146L165.235 81.0662C165.235 81.0662 163.998 78.4934 161.646 79.1951C159.295 79.8968 158.366 79.2535 158.366 79.2535C158.366 79.2535 155.706 82.8205 150.013 82.8205Z" fill="#D0CDE1"/>
<path d="M156.943 123.869C156.943 123.869 162.265 129.483 159.295 130.418C156.324 131.354 152.735 126.676 152.735 126.676L156.943 123.869Z" fill="#A0616A"/>
<path d="M158.676 124.337C158.676 124.337 154.344 127.144 155.953 129.015C157.562 130.886 163.131 127.378 163.131 126.676C163.131 125.974 158.676 124.337 158.676 124.337Z" fill="#A0616A"/>
<path d="M148.032 109.134L144.443 109.718L142.092 93.2288C142.227 90.2372 142.123 87.2402 141.779 84.2636C141.516 82.2755 141.078 80.3646 140.358 79.0267C140.786 78.7623 141.184 78.4574 141.547 78.1168C142.409 79.4068 143.98 82.1386 144.318 85.329C144.407 86.1279 144.407 86.9333 144.32 87.7323C143.701 93.2288 143.824 94.2814 143.824 94.2814L148.032 109.134Z" fill="#2F2E41"/>
<path d="M139.74 80.0137C139.74 80.0137 133.924 78.4934 133.428 81.7679C132.933 85.0425 133.552 93.4627 134.914 96.6203C136.275 99.7779 140.978 110.069 140.978 110.069C140.978 110.069 149.517 120.361 149.889 122.817C150.26 125.273 152.116 127.845 152.116 127.845L158.057 124.22L146.423 105.625L141.349 92.761C141.349 92.761 143.453 81.0662 139.74 80.0137Z" fill="#D0CDE1"/>
<path d="M162.512 80.4815L165.235 81.0662C165.235 81.0662 167.71 91.1238 166.72 96.5034C165.73 101.883 165.606 103.754 165.606 103.754L164.74 119.074C164.74 119.074 164.988 128.898 163.255 127.378C161.522 125.857 158.057 125.156 158.057 125.156C158.057 125.156 158.428 120.829 159.79 119.776C159.79 119.776 161.399 111.707 160.408 108.198C159.418 104.69 162.512 80.4815 162.512 80.4815Z" fill="#D0CDE1"/>
<path d="M163.503 91.8255L160.347 109.075L158.428 108.315L161.77 91.8254L158.189 83.9888L155.071 77.1649C155.795 77.7133 156.546 78.2197 157.253 78.6665L159.152 82.6661L163.503 91.8255Z" fill="#2F2E41"/>
<path d="M154.17 60.527L148.528 57.7341L140.736 58.8767L139.124 65.6049L143.136 65.459L144.258 62.9871V65.4184L146.109 65.3509L147.184 61.4155L147.856 65.6049L154.439 65.4779L154.17 60.527Z" fill="#2F2E41"/>
<path d="M143.023 204.871C145.147 204.871 146.869 204.261 146.869 203.509C146.869 202.756 145.147 202.146 143.023 202.146C140.9 202.146 139.178 202.756 139.178 203.509C139.178 204.261 140.9 204.871 143.023 204.871Z" fill="#2F2E41"/>
<path d="M168.981 204.871C171.104 204.871 172.826 204.261 172.826 203.509C172.826 202.756 171.104 202.146 168.981 202.146C166.857 202.146 165.135 202.756 165.135 203.509C165.135 204.261 166.857 204.871 168.981 204.871Z" fill="#2F2E41"/>
<path d="M71.7715 165.796C67.8379 168.215 63.3049 169.622 58.6197 169.88C53.9345 170.138 49.2592 169.237 45.055 167.266L45.6502 166.119C50.7178 168.471 56.4616 169.19 62.0023 168.164C67.5431 167.139 72.5755 164.426 76.3293 160.44C80.0831 156.455 82.3514 151.417 82.787 146.098C83.2227 140.779 81.8017 135.471 78.7414 130.987C75.6812 126.504 71.1505 123.091 65.8427 121.273C60.5349 119.454 54.7426 119.328 49.3523 120.916C43.9621 122.504 39.2709 125.717 35.9969 130.063C32.7228 134.41 31.0464 139.651 31.2241 144.983L29.8725 145.022C29.7228 140.535 30.8202 136.09 33.0554 132.129C35.2905 128.168 38.5854 124.829 42.6114 122.446C46.6375 120.064 51.2542 118.72 56.0014 118.548C60.7485 118.377 65.4602 119.384 69.6669 121.47C73.8736 123.556 77.4284 126.647 79.9768 130.435C82.5252 134.224 83.9783 138.577 84.1912 143.062C84.4041 147.546 83.3694 152.005 81.1903 155.994C79.0111 159.983 75.7636 163.363 71.7715 165.796Z" fill="white"/>
<path d="M59.5404 142.69C55.542 143.526 50.2205 144.036 46.3431 143.503L51.2106 147.006L37.5839 155.311L38.3168 156.385L51.9435 148.08L53.3134 153.716C54.3996 150.158 57.0858 145.788 59.5404 142.69Z" fill="white"/>
</g>
<defs>
<clipPath id="clip0_1_1793">
<rect width="212" height="222" fill="white" transform="translate(0.5)"/>
</clipPath>
</defs>
</svg>
