<svg width="125" height="91" viewBox="0 0 125 91" fill="none" xmlns="http://www.w3.org/2000/svg">
<path d="M122.67 54.4793C118.838 33.4106 114.048 26.3863 114.048 26.3863L112.219 24.7726L110.018 22.8289L110.029 22.579L109.507 22.3773L109.384 22.269L109.183 22.0936L109.151 22.1331L109.083 22.2134L99.1254 18.3644L86.4926 13.4848L80.6429 4.83835C79.6901 3.43015 78.4636 2.29199 77.0593 1.51308C75.655 0.734172 74.1112 0.335676 72.5488 0.348826L53.8666 0.506024C51.3405 0.527282 48.9128 1.62233 47.0607 3.57589L34.7812 16.5284L15.6472 26.9201L15.6149 26.8834L15.414 27.0466L12.4576 28.6541L12.5796 29.3762L10.7498 30.8777C10.7498 30.8777 5.96008 37.4138 2.12826 57.0179C1.15349 62.0061 0.673675 72.7066 0.500487 85.8923C0.491787 86.5593 0.599785 87.2217 0.818196 87.8408C1.03661 88.4599 1.36108 89.0235 1.77274 89.4988C2.1844 89.974 2.67503 90.3515 3.21612 90.6092C3.75721 90.8669 4.33796 90.9997 4.92459 90.9999H107.123L119.878 90.9999C120.465 90.9996 121.045 90.8669 121.586 90.6095C122.126 90.352 122.617 89.9751 123.028 89.5004C123.44 89.0257 123.764 88.4628 123.983 87.8443C124.202 87.2258 124.31 86.5641 124.302 85.8975C124.133 71.5494 123.654 59.8889 122.67 54.4793Z" fill="#00594E"/>
</svg>
